<svg xmlns="http://www.w3.org/2000/svg" viewBox="0 0 1200 800" width="1200" height="800" preserveAspectRatio="xMidYMid slice" role="img">
<defs>
<filter id="g51" x="0" y="0" width="100%" height="100%"><feTurbulence type="fractalNoise" baseFrequency="0.9" numOctaves="3" seed="360" result="n"/><feColorMatrix in="n" type="saturate" values="0"/><feComponentTransfer><feFuncA type="linear" slope="0.13"/></feComponentTransfer></filter>
<linearGradient id="w51" x1="0" y1="0" x2="0.2" y2="1"><stop offset="0" stop-color="#A5A199"/><stop offset="1" stop-color="#8E8A80"/></linearGradient>
<radialGradient id="lp51" cx="0.5" cy="0.42" r="0.62"><stop offset="0" stop-color="#FFFFFF" stop-opacity="0.30"/><stop offset="0.55" stop-color="#FFFFFF" stop-opacity="0.05"/><stop offset="1" stop-color="#0E0F11" stop-opacity="0.55"/></radialGradient>
<linearGradient id="fg51" x1="0" y1="1" x2="0" y2="0"><stop offset="0" stop-color="#0E0F11" stop-opacity="0.55"/><stop offset="0.4" stop-color="#0E0F11" stop-opacity="0.10"/><stop offset="1" stop-color="#0E0F11" stop-opacity="0"/></linearGradient>
</defs>
<rect width="1200" height="800" fill="url(#w51)"/>
<path d="M-600 0 L154 24 L154 448 L-600 800 Z" fill="#6B675E" opacity="0.9"/>
<path d="M-600 0 L154 24 L154 448 L-600 800 Z" fill="#0E0F11" opacity="0.25"/>
<path d="M-297 282 L-297 658" stroke="#3F3C36" stroke-opacity="0.45" stroke-width="2"/>
<path d="M-116 273 L-116 574" stroke="#3F3C36" stroke-opacity="0.45" stroke-width="2"/>
<path d="M5 268 L5 518" stroke="#3F3C36" stroke-opacity="0.45" stroke-width="2"/>
<path d="M90 264 L90 478" stroke="#3F3C36" stroke-opacity="0.45" stroke-width="2"/>
<path d="M1800 0 L1046 24 L1046 448 L1800 800 Z" fill="#6B675E" opacity="0.9"/>
<path d="M1800 0 L1046 24 L1046 448 L1800 800 Z" fill="#0E0F11" opacity="0.25"/>
<path d="M1497 282 L1497 658" stroke="#3F3C36" stroke-opacity="0.45" stroke-width="2"/>
<path d="M1316 273 L1316 574" stroke="#3F3C36" stroke-opacity="0.45" stroke-width="2"/>
<path d="M1195 268 L1195 518" stroke="#3F3C36" stroke-opacity="0.45" stroke-width="2"/>
<path d="M1110 264 L1110 478" stroke="#3F3C36" stroke-opacity="0.45" stroke-width="2"/>
<rect x="154" y="24" width="891" height="424" fill="#8E8A80"/>
<rect x="154.3" y="24.0" width="89.1" height="53.0" fill="#9A968C" stroke="#3F3C36" stroke-opacity="0.65" stroke-width="1.6"/>
<rect x="243.4" y="24.0" width="89.1" height="53.0" fill="#6B675E" stroke="#3F3C36" stroke-opacity="0.65" stroke-width="1.6"/>
<rect x="332.6" y="24.0" width="89.1" height="53.0" fill="#6B675E" stroke="#3F3C36" stroke-opacity="0.65" stroke-width="1.6"/>
<rect x="421.7" y="24.0" width="89.1" height="53.0" fill="#6B675E" stroke="#3F3C36" stroke-opacity="0.65" stroke-width="1.6"/>
<rect x="510.9" y="24.0" width="89.1" height="53.0" fill="#9A968C" stroke="#3F3C36" stroke-opacity="0.65" stroke-width="1.6"/>
<rect x="600.0" y="24.0" width="89.1" height="53.0" fill="#847F74" stroke="#3F3C36" stroke-opacity="0.65" stroke-width="1.6"/>
<rect x="689.1" y="24.0" width="89.1" height="53.0" fill="#6B675E" stroke="#3F3C36" stroke-opacity="0.65" stroke-width="1.6"/>
<rect x="778.3" y="24.0" width="89.1" height="53.0" fill="#6B675E" stroke="#3F3C36" stroke-opacity="0.65" stroke-width="1.6"/>
<rect x="867.4" y="24.0" width="89.1" height="53.0" fill="#9A968C" stroke="#3F3C36" stroke-opacity="0.65" stroke-width="1.6"/>
<rect x="956.6" y="24.0" width="89.1" height="53.0" fill="#6B675E" stroke="#3F3C36" stroke-opacity="0.65" stroke-width="1.6"/>
<rect x="154.3" y="77.0" width="89.1" height="53.0" fill="#847F74" stroke="#3F3C36" stroke-opacity="0.65" stroke-width="1.6"/>
<rect x="243.4" y="77.0" width="89.1" height="53.0" fill="#9A968C" stroke="#3F3C36" stroke-opacity="0.65" stroke-width="1.6"/>
<rect x="332.6" y="77.0" width="89.1" height="53.0" fill="#6B675E" stroke="#3F3C36" stroke-opacity="0.65" stroke-width="1.6"/>
<rect x="421.7" y="77.0" width="89.1" height="53.0" fill="#847F74" stroke="#3F3C36" stroke-opacity="0.65" stroke-width="1.6"/>
<rect x="510.9" y="77.0" width="89.1" height="53.0" fill="#847F74" stroke="#3F3C36" stroke-opacity="0.65" stroke-width="1.6"/>
<rect x="600.0" y="77.0" width="89.1" height="53.0" fill="#847F74" stroke="#3F3C36" stroke-opacity="0.65" stroke-width="1.6"/>
<rect x="689.1" y="77.0" width="89.1" height="53.0" fill="#9A968C" stroke="#3F3C36" stroke-opacity="0.65" stroke-width="1.6"/>
<rect x="778.3" y="77.0" width="89.1" height="53.0" fill="#9A968C" stroke="#3F3C36" stroke-opacity="0.65" stroke-width="1.6"/>
<rect x="867.4" y="77.0" width="89.1" height="53.0" fill="#9A968C" stroke="#3F3C36" stroke-opacity="0.65" stroke-width="1.6"/>
<rect x="956.6" y="77.0" width="89.1" height="53.0" fill="#9A968C" stroke="#3F3C36" stroke-opacity="0.65" stroke-width="1.6"/>
<rect x="154.3" y="130.0" width="89.1" height="53.0" fill="#6B675E" stroke="#3F3C36" stroke-opacity="0.65" stroke-width="1.6"/>
<rect x="243.4" y="130.0" width="89.1" height="53.0" fill="#9A968C" stroke="#3F3C36" stroke-opacity="0.65" stroke-width="1.6"/>
<rect x="332.6" y="130.0" width="89.1" height="53.0" fill="#9A968C" stroke="#3F3C36" stroke-opacity="0.65" stroke-width="1.6"/>
<rect x="421.7" y="130.0" width="89.1" height="53.0" fill="#847F74" stroke="#3F3C36" stroke-opacity="0.65" stroke-width="1.6"/>
<rect x="510.9" y="130.0" width="89.1" height="53.0" fill="#9A968C" stroke="#3F3C36" stroke-opacity="0.65" stroke-width="1.6"/>
<rect x="600.0" y="130.0" width="89.1" height="53.0" fill="#9A968C" stroke="#3F3C36" stroke-opacity="0.65" stroke-width="1.6"/>
<rect x="689.1" y="130.0" width="89.1" height="53.0" fill="#9A968C" stroke="#3F3C36" stroke-opacity="0.65" stroke-width="1.6"/>
<rect x="778.3" y="130.0" width="89.1" height="53.0" fill="#9A968C" stroke="#3F3C36" stroke-opacity="0.65" stroke-width="1.6"/>
<rect x="867.4" y="130.0" width="89.1" height="53.0" fill="#847F74" stroke="#3F3C36" stroke-opacity="0.65" stroke-width="1.6"/>
<rect x="956.6" y="130.0" width="89.1" height="53.0" fill="#847F74" stroke="#3F3C36" stroke-opacity="0.65" stroke-width="1.6"/>
<rect x="154.3" y="183.0" width="89.1" height="53.0" fill="#6B675E" stroke="#3F3C36" stroke-opacity="0.65" stroke-width="1.6"/>
<rect x="243.4" y="183.0" width="89.1" height="53.0" fill="#6B675E" stroke="#3F3C36" stroke-opacity="0.65" stroke-width="1.6"/>
<rect x="332.6" y="183.0" width="89.1" height="53.0" fill="#9A968C" stroke="#3F3C36" stroke-opacity="0.65" stroke-width="1.6"/>
<rect x="421.7" y="183.0" width="89.1" height="53.0" fill="#9A968C" stroke="#3F3C36" stroke-opacity="0.65" stroke-width="1.6"/>
<rect x="510.9" y="183.0" width="89.1" height="53.0" fill="#9A968C" stroke="#3F3C36" stroke-opacity="0.65" stroke-width="1.6"/>
<rect x="600.0" y="183.0" width="89.1" height="53.0" fill="#6B675E" stroke="#3F3C36" stroke-opacity="0.65" stroke-width="1.6"/>
<rect x="689.1" y="183.0" width="89.1" height="53.0" fill="#9A968C" stroke="#3F3C36" stroke-opacity="0.65" stroke-width="1.6"/>
<rect x="778.3" y="183.0" width="89.1" height="53.0" fill="#9A968C" stroke="#3F3C36" stroke-opacity="0.65" stroke-width="1.6"/>
<rect x="867.4" y="183.0" width="89.1" height="53.0" fill="#9A968C" stroke="#3F3C36" stroke-opacity="0.65" stroke-width="1.6"/>
<rect x="956.6" y="183.0" width="89.1" height="53.0" fill="#9A968C" stroke="#3F3C36" stroke-opacity="0.65" stroke-width="1.6"/>
<rect x="154.3" y="236.0" width="89.1" height="53.0" fill="#847F74" stroke="#3F3C36" stroke-opacity="0.65" stroke-width="1.6"/>
<rect x="243.4" y="236.0" width="89.1" height="53.0" fill="#847F74" stroke="#3F3C36" stroke-opacity="0.65" stroke-width="1.6"/>
<rect x="332.6" y="236.0" width="89.1" height="53.0" fill="#9A968C" stroke="#3F3C36" stroke-opacity="0.65" stroke-width="1.6"/>
<rect x="421.7" y="236.0" width="89.1" height="53.0" fill="#6B675E" stroke="#3F3C36" stroke-opacity="0.65" stroke-width="1.6"/>
<rect x="510.9" y="236.0" width="89.1" height="53.0" fill="#847F74" stroke="#3F3C36" stroke-opacity="0.65" stroke-width="1.6"/>
<rect x="600.0" y="236.0" width="89.1" height="53.0" fill="#6B675E" stroke="#3F3C36" stroke-opacity="0.65" stroke-width="1.6"/>
<rect x="689.1" y="236.0" width="89.1" height="53.0" fill="#9A968C" stroke="#3F3C36" stroke-opacity="0.65" stroke-width="1.6"/>
<rect x="778.3" y="236.0" width="89.1" height="53.0" fill="#9A968C" stroke="#3F3C36" stroke-opacity="0.65" stroke-width="1.6"/>
<rect x="867.4" y="236.0" width="89.1" height="53.0" fill="#9A968C" stroke="#3F3C36" stroke-opacity="0.65" stroke-width="1.6"/>
<rect x="956.6" y="236.0" width="89.1" height="53.0" fill="#9A968C" stroke="#3F3C36" stroke-opacity="0.65" stroke-width="1.6"/>
<rect x="154.3" y="289.0" width="89.1" height="53.0" fill="#847F74" stroke="#3F3C36" stroke-opacity="0.65" stroke-width="1.6"/>
<rect x="243.4" y="289.0" width="89.1" height="53.0" fill="#6B675E" stroke="#3F3C36" stroke-opacity="0.65" stroke-width="1.6"/>
<rect x="332.6" y="289.0" width="89.1" height="53.0" fill="#9A968C" stroke="#3F3C36" stroke-opacity="0.65" stroke-width="1.6"/>
<rect x="421.7" y="289.0" width="89.1" height="53.0" fill="#847F74" stroke="#3F3C36" stroke-opacity="0.65" stroke-width="1.6"/>
<rect x="510.9" y="289.0" width="89.1" height="53.0" fill="#9A968C" stroke="#3F3C36" stroke-opacity="0.65" stroke-width="1.6"/>
<rect x="600.0" y="289.0" width="89.1" height="53.0" fill="#6B675E" stroke="#3F3C36" stroke-opacity="0.65" stroke-width="1.6"/>
<rect x="689.1" y="289.0" width="89.1" height="53.0" fill="#6B675E" stroke="#3F3C36" stroke-opacity="0.65" stroke-width="1.6"/>
<rect x="778.3" y="289.0" width="89.1" height="53.0" fill="#6B675E" stroke="#3F3C36" stroke-opacity="0.65" stroke-width="1.6"/>
<rect x="867.4" y="289.0" width="89.1" height="53.0" fill="#9A968C" stroke="#3F3C36" stroke-opacity="0.65" stroke-width="1.6"/>
<rect x="956.6" y="289.0" width="89.1" height="53.0" fill="#6B675E" stroke="#3F3C36" stroke-opacity="0.65" stroke-width="1.6"/>
<rect x="154.3" y="342.0" width="89.1" height="53.0" fill="#9A968C" stroke="#3F3C36" stroke-opacity="0.65" stroke-width="1.6"/>
<rect x="243.4" y="342.0" width="89.1" height="53.0" fill="#6B675E" stroke="#3F3C36" stroke-opacity="0.65" stroke-width="1.6"/>
<rect x="332.6" y="342.0" width="89.1" height="53.0" fill="#9A968C" stroke="#3F3C36" stroke-opacity="0.65" stroke-width="1.6"/>
<rect x="421.7" y="342.0" width="89.1" height="53.0" fill="#847F74" stroke="#3F3C36" stroke-opacity="0.65" stroke-width="1.6"/>
<rect x="510.9" y="342.0" width="89.1" height="53.0" fill="#847F74" stroke="#3F3C36" stroke-opacity="0.65" stroke-width="1.6"/>
<rect x="600.0" y="342.0" width="89.1" height="53.0" fill="#847F74" stroke="#3F3C36" stroke-opacity="0.65" stroke-width="1.6"/>
<rect x="689.1" y="342.0" width="89.1" height="53.0" fill="#9A968C" stroke="#3F3C36" stroke-opacity="0.65" stroke-width="1.6"/>
<rect x="778.3" y="342.0" width="89.1" height="53.0" fill="#6B675E" stroke="#3F3C36" stroke-opacity="0.65" stroke-width="1.6"/>
<rect x="867.4" y="342.0" width="89.1" height="53.0" fill="#9A968C" stroke="#3F3C36" stroke-opacity="0.65" stroke-width="1.6"/>
<rect x="956.6" y="342.0" width="89.1" height="53.0" fill="#847F74" stroke="#3F3C36" stroke-opacity="0.65" stroke-width="1.6"/>
<rect x="154.3" y="395.0" width="89.1" height="53.0" fill="#9A968C" stroke="#3F3C36" stroke-opacity="0.65" stroke-width="1.6"/>
<rect x="243.4" y="395.0" width="89.1" height="53.0" fill="#847F74" stroke="#3F3C36" stroke-opacity="0.65" stroke-width="1.6"/>
<rect x="332.6" y="395.0" width="89.1" height="53.0" fill="#847F74" stroke="#3F3C36" stroke-opacity="0.65" stroke-width="1.6"/>
<rect x="421.7" y="395.0" width="89.1" height="53.0" fill="#847F74" stroke="#3F3C36" stroke-opacity="0.65" stroke-width="1.6"/>
<rect x="510.9" y="395.0" width="89.1" height="53.0" fill="#9A968C" stroke="#3F3C36" stroke-opacity="0.65" stroke-width="1.6"/>
<rect x="600.0" y="395.0" width="89.1" height="53.0" fill="#6B675E" stroke="#3F3C36" stroke-opacity="0.65" stroke-width="1.6"/>
<rect x="689.1" y="395.0" width="89.1" height="53.0" fill="#9A968C" stroke="#3F3C36" stroke-opacity="0.65" stroke-width="1.6"/>
<rect x="778.3" y="395.0" width="89.1" height="53.0" fill="#9A968C" stroke="#3F3C36" stroke-opacity="0.65" stroke-width="1.6"/>
<rect x="867.4" y="395.0" width="89.1" height="53.0" fill="#9A968C" stroke="#3F3C36" stroke-opacity="0.65" stroke-width="1.6"/>
<rect x="956.6" y="395.0" width="89.1" height="53.0" fill="#9A968C" stroke="#3F3C36" stroke-opacity="0.65" stroke-width="1.6"/>
<path d="M-360.0 800.0 L-120.0 800.0 L-54.5 749.1 L-272.7 749.1 Z" fill="#6B675E" stroke="#3F3C36" stroke-opacity="0.75" stroke-width="3.2"/>
<path d="M-120.0 800.0 L120.0 800.0 L163.6 749.1 L-54.5 749.1 Z" fill="#6B675E" stroke="#3F3C36" stroke-opacity="0.75" stroke-width="3.2"/>
<path d="M-120.0 800.0 L120.0 800.0 L163.6 749.1 L-54.5 749.1 Z" fill="#FFFFFF" opacity="0.04"/>
<path d="M120.0 800.0 L360.0 800.0 L381.8 749.1 L163.6 749.1 Z" fill="#9A968C" stroke="#3F3C36" stroke-opacity="0.75" stroke-width="3.2"/>
<path d="M360.0 800.0 L600.0 800.0 L600.0 749.1 L381.8 749.1 Z" fill="#847F74" stroke="#3F3C36" stroke-opacity="0.75" stroke-width="3.2"/>
<path d="M600.0 800.0 L840.0 800.0 L818.2 749.1 L600.0 749.1 Z" fill="#847F74" stroke="#3F3C36" stroke-opacity="0.75" stroke-width="3.2"/>
<path d="M840.0 800.0 L1080.0 800.0 L1036.4 749.1 L818.2 749.1 Z" fill="#9A968C" stroke="#3F3C36" stroke-opacity="0.75" stroke-width="3.2"/>
<path d="M840.0 800.0 L1080.0 800.0 L1036.4 749.1 L818.2 749.1 Z" fill="#FFFFFF" opacity="0.03"/>
<path d="M1080.0 800.0 L1320.0 800.0 L1254.5 749.1 L1036.4 749.1 Z" fill="#6B675E" stroke="#3F3C36" stroke-opacity="0.75" stroke-width="3.2"/>
<path d="M1320.0 800.0 L1560.0 800.0 L1472.7 749.1 L1254.5 749.1 Z" fill="#6B675E" stroke="#3F3C36" stroke-opacity="0.75" stroke-width="3.2"/>
<path d="M1320.0 800.0 L1560.0 800.0 L1472.7 749.1 L1254.5 749.1 Z" fill="#FFFFFF" opacity="0.05"/>
<path d="M-272.7 749.1 L-54.5 749.1 L0.0 706.7 L-200.0 706.7 Z" fill="#847F74" stroke="#3F3C36" stroke-opacity="0.75" stroke-width="3.1"/>
<path d="M-54.5 749.1 L163.6 749.1 L200.0 706.7 L0.0 706.7 Z" fill="#6B675E" stroke="#3F3C36" stroke-opacity="0.75" stroke-width="3.1"/>
<path d="M163.6 749.1 L381.8 749.1 L400.0 706.7 L200.0 706.7 Z" fill="#9A968C" stroke="#3F3C36" stroke-opacity="0.75" stroke-width="3.1"/>
<path d="M163.6 749.1 L381.8 749.1 L400.0 706.7 L200.0 706.7 Z" fill="#FFFFFF" opacity="0.08"/>
<path d="M381.8 749.1 L600.0 749.1 L600.0 706.7 L400.0 706.7 Z" fill="#9A968C" stroke="#3F3C36" stroke-opacity="0.75" stroke-width="3.1"/>
<path d="M600.0 749.1 L818.2 749.1 L800.0 706.7 L600.0 706.7 Z" fill="#847F74" stroke="#3F3C36" stroke-opacity="0.75" stroke-width="3.1"/>
<path d="M818.2 749.1 L1036.4 749.1 L1000.0 706.7 L800.0 706.7 Z" fill="#847F74" stroke="#3F3C36" stroke-opacity="0.75" stroke-width="3.1"/>
<path d="M818.2 749.1 L1036.4 749.1 L1000.0 706.7 L800.0 706.7 Z" fill="#FFFFFF" opacity="0.03"/>
<path d="M1036.4 749.1 L1254.5 749.1 L1200.0 706.7 L1000.0 706.7 Z" fill="#9A968C" stroke="#3F3C36" stroke-opacity="0.75" stroke-width="3.1"/>
<path d="M1036.4 749.1 L1254.5 749.1 L1200.0 706.7 L1000.0 706.7 Z" fill="#FFFFFF" opacity="0.08"/>
<path d="M1254.5 749.1 L1472.7 749.1 L1400.0 706.7 L1200.0 706.7 Z" fill="#6B675E" stroke="#3F3C36" stroke-opacity="0.75" stroke-width="3.1"/>
<path d="M1254.5 749.1 L1472.7 749.1 L1400.0 706.7 L1200.0 706.7 Z" fill="#FFFFFF" opacity="0.04"/>
<path d="M-200.0 706.7 L0.0 706.7 L46.2 670.8 L-138.5 670.8 Z" fill="#9A968C" stroke="#3F3C36" stroke-opacity="0.75" stroke-width="2.9"/>
<path d="M-200.0 706.7 L0.0 706.7 L46.2 670.8 L-138.5 670.8 Z" fill="#FFFFFF" opacity="0.08"/>
<path d="M0.0 706.7 L200.0 706.7 L230.8 670.8 L46.2 670.8 Z" fill="#9A968C" stroke="#3F3C36" stroke-opacity="0.75" stroke-width="2.9"/>
<path d="M0.0 706.7 L200.0 706.7 L230.8 670.8 L46.2 670.8 Z" fill="#FFFFFF" opacity="0.05"/>
<path d="M200.0 706.7 L400.0 706.7 L415.4 670.8 L230.8 670.8 Z" fill="#847F74" stroke="#3F3C36" stroke-opacity="0.75" stroke-width="2.9"/>
<path d="M200.0 706.7 L400.0 706.7 L415.4 670.8 L230.8 670.8 Z" fill="#FFFFFF" opacity="0.05"/>
<path d="M400.0 706.7 L600.0 706.7 L600.0 670.8 L415.4 670.8 Z" fill="#6B675E" stroke="#3F3C36" stroke-opacity="0.75" stroke-width="2.9"/>
<path d="M400.0 706.7 L600.0 706.7 L600.0 670.8 L415.4 670.8 Z" fill="#FFFFFF" opacity="0.09"/>
<path d="M600.0 706.7 L800.0 706.7 L784.6 670.8 L600.0 670.8 Z" fill="#6B675E" stroke="#3F3C36" stroke-opacity="0.75" stroke-width="2.9"/>
<path d="M600.0 706.7 L800.0 706.7 L784.6 670.8 L600.0 670.8 Z" fill="#FFFFFF" opacity="0.06"/>
<path d="M800.0 706.7 L1000.0 706.7 L969.2 670.8 L784.6 670.8 Z" fill="#6B675E" stroke="#3F3C36" stroke-opacity="0.75" stroke-width="2.9"/>
<path d="M800.0 706.7 L1000.0 706.7 L969.2 670.8 L784.6 670.8 Z" fill="#FFFFFF" opacity="0.07"/>
<path d="M1000.0 706.7 L1200.0 706.7 L1153.8 670.8 L969.2 670.8 Z" fill="#9A968C" stroke="#3F3C36" stroke-opacity="0.75" stroke-width="2.9"/>
<path d="M1200.0 706.7 L1400.0 706.7 L1338.5 670.8 L1153.8 670.8 Z" fill="#847F74" stroke="#3F3C36" stroke-opacity="0.75" stroke-width="2.9"/>
<path d="M-138.5 670.8 L46.2 670.8 L85.7 640.0 L-85.7 640.0 Z" fill="#847F74" stroke="#3F3C36" stroke-opacity="0.75" stroke-width="2.8"/>
<path d="M46.2 670.8 L230.8 670.8 L257.1 640.0 L85.7 640.0 Z" fill="#9A968C" stroke="#3F3C36" stroke-opacity="0.75" stroke-width="2.8"/>
<path d="M230.8 670.8 L415.4 670.8 L428.6 640.0 L257.1 640.0 Z" fill="#6B675E" stroke="#3F3C36" stroke-opacity="0.75" stroke-width="2.8"/>
<path d="M230.8 670.8 L415.4 670.8 L428.6 640.0 L257.1 640.0 Z" fill="#FFFFFF" opacity="0.04"/>
<path d="M415.4 670.8 L600.0 670.8 L600.0 640.0 L428.6 640.0 Z" fill="#6B675E" stroke="#3F3C36" stroke-opacity="0.75" stroke-width="2.8"/>
<path d="M600.0 670.8 L784.6 670.8 L771.4 640.0 L600.0 640.0 Z" fill="#9A968C" stroke="#3F3C36" stroke-opacity="0.75" stroke-width="2.8"/>
<path d="M784.6 670.8 L969.2 670.8 L942.9 640.0 L771.4 640.0 Z" fill="#9A968C" stroke="#3F3C36" stroke-opacity="0.75" stroke-width="2.8"/>
<path d="M969.2 670.8 L1153.8 670.8 L1114.3 640.0 L942.9 640.0 Z" fill="#847F74" stroke="#3F3C36" stroke-opacity="0.75" stroke-width="2.8"/>
<path d="M1153.8 670.8 L1338.5 670.8 L1285.7 640.0 L1114.3 640.0 Z" fill="#847F74" stroke="#3F3C36" stroke-opacity="0.75" stroke-width="2.8"/>
<path d="M1153.8 670.8 L1338.5 670.8 L1285.7 640.0 L1114.3 640.0 Z" fill="#FFFFFF" opacity="0.04"/>
<path d="M-257.1 640.0 L-85.7 640.0 L-40.0 613.3 L-200.0 613.3 Z" fill="#6B675E" stroke="#3F3C36" stroke-opacity="0.75" stroke-width="2.6"/>
<path d="M-257.1 640.0 L-85.7 640.0 L-40.0 613.3 L-200.0 613.3 Z" fill="#FFFFFF" opacity="0.08"/>
<path d="M-85.7 640.0 L85.7 640.0 L120.0 613.3 L-40.0 613.3 Z" fill="#847F74" stroke="#3F3C36" stroke-opacity="0.75" stroke-width="2.6"/>
<path d="M85.7 640.0 L257.1 640.0 L280.0 613.3 L120.0 613.3 Z" fill="#6B675E" stroke="#3F3C36" stroke-opacity="0.75" stroke-width="2.6"/>
<path d="M257.1 640.0 L428.6 640.0 L440.0 613.3 L280.0 613.3 Z" fill="#847F74" stroke="#3F3C36" stroke-opacity="0.75" stroke-width="2.6"/>
<path d="M428.6 640.0 L600.0 640.0 L600.0 613.3 L440.0 613.3 Z" fill="#6B675E" stroke="#3F3C36" stroke-opacity="0.75" stroke-width="2.6"/>
<path d="M428.6 640.0 L600.0 640.0 L600.0 613.3 L440.0 613.3 Z" fill="#FFFFFF" opacity="0.05"/>
<path d="M600.0 640.0 L771.4 640.0 L760.0 613.3 L600.0 613.3 Z" fill="#847F74" stroke="#3F3C36" stroke-opacity="0.75" stroke-width="2.6"/>
<path d="M600.0 640.0 L771.4 640.0 L760.0 613.3 L600.0 613.3 Z" fill="#FFFFFF" opacity="0.07"/>
<path d="M771.4 640.0 L942.9 640.0 L920.0 613.3 L760.0 613.3 Z" fill="#6B675E" stroke="#3F3C36" stroke-opacity="0.75" stroke-width="2.6"/>
<path d="M771.4 640.0 L942.9 640.0 L920.0 613.3 L760.0 613.3 Z" fill="#FFFFFF" opacity="0.07"/>
<path d="M942.9 640.0 L1114.3 640.0 L1080.0 613.3 L920.0 613.3 Z" fill="#6B675E" stroke="#3F3C36" stroke-opacity="0.75" stroke-width="2.6"/>
<path d="M1114.3 640.0 L1285.7 640.0 L1240.0 613.3 L1080.0 613.3 Z" fill="#6B675E" stroke="#3F3C36" stroke-opacity="0.75" stroke-width="2.6"/>
<path d="M1114.3 640.0 L1285.7 640.0 L1240.0 613.3 L1080.0 613.3 Z" fill="#FFFFFF" opacity="0.05"/>
<path d="M1285.7 640.0 L1457.1 640.0 L1400.0 613.3 L1240.0 613.3 Z" fill="#6B675E" stroke="#3F3C36" stroke-opacity="0.75" stroke-width="2.6"/>
<path d="M1285.7 640.0 L1457.1 640.0 L1400.0 613.3 L1240.0 613.3 Z" fill="#FFFFFF" opacity="0.08"/>
<path d="M-200.0 613.3 L-40.0 613.3 L0.0 590.0 L-150.0 590.0 Z" fill="#847F74" stroke="#3F3C36" stroke-opacity="0.75" stroke-width="2.5"/>
<path d="M-200.0 613.3 L-40.0 613.3 L0.0 590.0 L-150.0 590.0 Z" fill="#FFFFFF" opacity="0.04"/>
<path d="M-40.0 613.3 L120.0 613.3 L150.0 590.0 L0.0 590.0 Z" fill="#847F74" stroke="#3F3C36" stroke-opacity="0.75" stroke-width="2.5"/>
<path d="M120.0 613.3 L280.0 613.3 L300.0 590.0 L150.0 590.0 Z" fill="#847F74" stroke="#3F3C36" stroke-opacity="0.75" stroke-width="2.5"/>
<path d="M280.0 613.3 L440.0 613.3 L450.0 590.0 L300.0 590.0 Z" fill="#6B675E" stroke="#3F3C36" stroke-opacity="0.75" stroke-width="2.5"/>
<path d="M440.0 613.3 L600.0 613.3 L600.0 590.0 L450.0 590.0 Z" fill="#9A968C" stroke="#3F3C36" stroke-opacity="0.75" stroke-width="2.5"/>
<path d="M600.0 613.3 L760.0 613.3 L750.0 590.0 L600.0 590.0 Z" fill="#9A968C" stroke="#3F3C36" stroke-opacity="0.75" stroke-width="2.5"/>
<path d="M760.0 613.3 L920.0 613.3 L900.0 590.0 L750.0 590.0 Z" fill="#9A968C" stroke="#3F3C36" stroke-opacity="0.75" stroke-width="2.5"/>
<path d="M760.0 613.3 L920.0 613.3 L900.0 590.0 L750.0 590.0 Z" fill="#FFFFFF" opacity="0.02"/>
<path d="M920.0 613.3 L1080.0 613.3 L1050.0 590.0 L900.0 590.0 Z" fill="#6B675E" stroke="#3F3C36" stroke-opacity="0.75" stroke-width="2.5"/>
<path d="M1080.0 613.3 L1240.0 613.3 L1200.0 590.0 L1050.0 590.0 Z" fill="#847F74" stroke="#3F3C36" stroke-opacity="0.75" stroke-width="2.5"/>
<path d="M1080.0 613.3 L1240.0 613.3 L1200.0 590.0 L1050.0 590.0 Z" fill="#FFFFFF" opacity="0.05"/>
<path d="M1240.0 613.3 L1400.0 613.3 L1350.0 590.0 L1200.0 590.0 Z" fill="#847F74" stroke="#3F3C36" stroke-opacity="0.75" stroke-width="2.5"/>
<path d="M-150.0 590.0 L0.0 590.0 L35.3 569.4 L-105.9 569.4 Z" fill="#847F74" stroke="#3F3C36" stroke-opacity="0.75" stroke-width="2.3"/>
<path d="M0.0 590.0 L150.0 590.0 L176.5 569.4 L35.3 569.4 Z" fill="#847F74" stroke="#3F3C36" stroke-opacity="0.75" stroke-width="2.3"/>
<path d="M150.0 590.0 L300.0 590.0 L317.6 569.4 L176.5 569.4 Z" fill="#9A968C" stroke="#3F3C36" stroke-opacity="0.75" stroke-width="2.3"/>
<path d="M150.0 590.0 L300.0 590.0 L317.6 569.4 L176.5 569.4 Z" fill="#FFFFFF" opacity="0.05"/>
<path d="M300.0 590.0 L450.0 590.0 L458.8 569.4 L317.6 569.4 Z" fill="#9A968C" stroke="#3F3C36" stroke-opacity="0.75" stroke-width="2.3"/>
<path d="M300.0 590.0 L450.0 590.0 L458.8 569.4 L317.6 569.4 Z" fill="#FFFFFF" opacity="0.07"/>
<path d="M450.0 590.0 L600.0 590.0 L600.0 569.4 L458.8 569.4 Z" fill="#847F74" stroke="#3F3C36" stroke-opacity="0.75" stroke-width="2.3"/>
<path d="M600.0 590.0 L750.0 590.0 L741.2 569.4 L600.0 569.4 Z" fill="#847F74" stroke="#3F3C36" stroke-opacity="0.75" stroke-width="2.3"/>
<path d="M750.0 590.0 L900.0 590.0 L882.4 569.4 L741.2 569.4 Z" fill="#9A968C" stroke="#3F3C36" stroke-opacity="0.75" stroke-width="2.3"/>
<path d="M900.0 590.0 L1050.0 590.0 L1023.5 569.4 L882.4 569.4 Z" fill="#9A968C" stroke="#3F3C36" stroke-opacity="0.75" stroke-width="2.3"/>
<path d="M900.0 590.0 L1050.0 590.0 L1023.5 569.4 L882.4 569.4 Z" fill="#FFFFFF" opacity="0.07"/>
<path d="M1050.0 590.0 L1200.0 590.0 L1164.7 569.4 L1023.5 569.4 Z" fill="#847F74" stroke="#3F3C36" stroke-opacity="0.75" stroke-width="2.3"/>
<path d="M1200.0 590.0 L1350.0 590.0 L1305.9 569.4 L1164.7 569.4 Z" fill="#9A968C" stroke="#3F3C36" stroke-opacity="0.75" stroke-width="2.3"/>
<path d="M-247.1 569.4 L-105.9 569.4 L-66.7 551.1 L-200.0 551.1 Z" fill="#9A968C" stroke="#3F3C36" stroke-opacity="0.75" stroke-width="2.2"/>
<path d="M-105.9 569.4 L35.3 569.4 L66.7 551.1 L-66.7 551.1 Z" fill="#6B675E" stroke="#3F3C36" stroke-opacity="0.75" stroke-width="2.2"/>
<path d="M35.3 569.4 L176.5 569.4 L200.0 551.1 L66.7 551.1 Z" fill="#847F74" stroke="#3F3C36" stroke-opacity="0.75" stroke-width="2.2"/>
<path d="M176.5 569.4 L317.6 569.4 L333.3 551.1 L200.0 551.1 Z" fill="#847F74" stroke="#3F3C36" stroke-opacity="0.75" stroke-width="2.2"/>
<path d="M176.5 569.4 L317.6 569.4 L333.3 551.1 L200.0 551.1 Z" fill="#FFFFFF" opacity="0.06"/>
<path d="M317.6 569.4 L458.8 569.4 L466.7 551.1 L333.3 551.1 Z" fill="#847F74" stroke="#3F3C36" stroke-opacity="0.75" stroke-width="2.2"/>
<path d="M458.8 569.4 L600.0 569.4 L600.0 551.1 L466.7 551.1 Z" fill="#9A968C" stroke="#3F3C36" stroke-opacity="0.75" stroke-width="2.2"/>
<path d="M600.0 569.4 L741.2 569.4 L733.3 551.1 L600.0 551.1 Z" fill="#847F74" stroke="#3F3C36" stroke-opacity="0.75" stroke-width="2.2"/>
<path d="M741.2 569.4 L882.4 569.4 L866.7 551.1 L733.3 551.1 Z" fill="#9A968C" stroke="#3F3C36" stroke-opacity="0.75" stroke-width="2.2"/>
<path d="M882.4 569.4 L1023.5 569.4 L1000.0 551.1 L866.7 551.1 Z" fill="#847F74" stroke="#3F3C36" stroke-opacity="0.75" stroke-width="2.2"/>
<path d="M1023.5 569.4 L1164.7 569.4 L1133.3 551.1 L1000.0 551.1 Z" fill="#6B675E" stroke="#3F3C36" stroke-opacity="0.75" stroke-width="2.2"/>
<path d="M1164.7 569.4 L1305.9 569.4 L1266.7 551.1 L1133.3 551.1 Z" fill="#9A968C" stroke="#3F3C36" stroke-opacity="0.75" stroke-width="2.2"/>
<path d="M1305.9 569.4 L1447.1 569.4 L1400.0 551.1 L1266.7 551.1 Z" fill="#9A968C" stroke="#3F3C36" stroke-opacity="0.75" stroke-width="2.2"/>
<path d="M-200.0 551.1 L-66.7 551.1 L-31.6 534.7 L-157.9 534.7 Z" fill="#9A968C" stroke="#3F3C36" stroke-opacity="0.75" stroke-width="2.1"/>
<path d="M-200.0 551.1 L-66.7 551.1 L-31.6 534.7 L-157.9 534.7 Z" fill="#FFFFFF" opacity="0.09"/>
<path d="M-66.7 551.1 L66.7 551.1 L94.7 534.7 L-31.6 534.7 Z" fill="#9A968C" stroke="#3F3C36" stroke-opacity="0.75" stroke-width="2.1"/>
<path d="M66.7 551.1 L200.0 551.1 L221.1 534.7 L94.7 534.7 Z" fill="#847F74" stroke="#3F3C36" stroke-opacity="0.75" stroke-width="2.1"/>
<path d="M66.7 551.1 L200.0 551.1 L221.1 534.7 L94.7 534.7 Z" fill="#FFFFFF" opacity="0.05"/>
<path d="M200.0 551.1 L333.3 551.1 L347.4 534.7 L221.1 534.7 Z" fill="#9A968C" stroke="#3F3C36" stroke-opacity="0.75" stroke-width="2.1"/>
<path d="M200.0 551.1 L333.3 551.1 L347.4 534.7 L221.1 534.7 Z" fill="#FFFFFF" opacity="0.06"/>
<path d="M333.3 551.1 L466.7 551.1 L473.7 534.7 L347.4 534.7 Z" fill="#847F74" stroke="#3F3C36" stroke-opacity="0.75" stroke-width="2.1"/>
<path d="M333.3 551.1 L466.7 551.1 L473.7 534.7 L347.4 534.7 Z" fill="#FFFFFF" opacity="0.04"/>
<path d="M466.7 551.1 L600.0 551.1 L600.0 534.7 L473.7 534.7 Z" fill="#847F74" stroke="#3F3C36" stroke-opacity="0.75" stroke-width="2.1"/>
<path d="M600.0 551.1 L733.3 551.1 L726.3 534.7 L600.0 534.7 Z" fill="#847F74" stroke="#3F3C36" stroke-opacity="0.75" stroke-width="2.1"/>
<path d="M600.0 551.1 L733.3 551.1 L726.3 534.7 L600.0 534.7 Z" fill="#FFFFFF" opacity="0.08"/>
<path d="M733.3 551.1 L866.7 551.1 L852.6 534.7 L726.3 534.7 Z" fill="#847F74" stroke="#3F3C36" stroke-opacity="0.75" stroke-width="2.1"/>
<path d="M866.7 551.1 L1000.0 551.1 L978.9 534.7 L852.6 534.7 Z" fill="#6B675E" stroke="#3F3C36" stroke-opacity="0.75" stroke-width="2.1"/>
<path d="M1000.0 551.1 L1133.3 551.1 L1105.3 534.7 L978.9 534.7 Z" fill="#6B675E" stroke="#3F3C36" stroke-opacity="0.75" stroke-width="2.1"/>
<path d="M1133.3 551.1 L1266.7 551.1 L1231.6 534.7 L1105.3 534.7 Z" fill="#6B675E" stroke="#3F3C36" stroke-opacity="0.75" stroke-width="2.1"/>
<path d="M1133.3 551.1 L1266.7 551.1 L1231.6 534.7 L1105.3 534.7 Z" fill="#FFFFFF" opacity="0.02"/>
<path d="M1266.7 551.1 L1400.0 551.1 L1357.9 534.7 L1231.6 534.7 Z" fill="#9A968C" stroke="#3F3C36" stroke-opacity="0.75" stroke-width="2.1"/>
<path d="M1266.7 551.1 L1400.0 551.1 L1357.9 534.7 L1231.6 534.7 Z" fill="#FFFFFF" opacity="0.04"/>
<path d="M-157.9 534.7 L-31.6 534.7 L0.0 520.0 L-120.0 520.0 Z" fill="#847F74" stroke="#3F3C36" stroke-opacity="0.75" stroke-width="1.9"/>
<path d="M-31.6 534.7 L94.7 534.7 L120.0 520.0 L0.0 520.0 Z" fill="#9A968C" stroke="#3F3C36" stroke-opacity="0.75" stroke-width="1.9"/>
<path d="M-31.6 534.7 L94.7 534.7 L120.0 520.0 L0.0 520.0 Z" fill="#FFFFFF" opacity="0.07"/>
<path d="M94.7 534.7 L221.1 534.7 L240.0 520.0 L120.0 520.0 Z" fill="#6B675E" stroke="#3F3C36" stroke-opacity="0.75" stroke-width="1.9"/>
<path d="M221.1 534.7 L347.4 534.7 L360.0 520.0 L240.0 520.0 Z" fill="#847F74" stroke="#3F3C36" stroke-opacity="0.75" stroke-width="1.9"/>
<path d="M347.4 534.7 L473.7 534.7 L480.0 520.0 L360.0 520.0 Z" fill="#847F74" stroke="#3F3C36" stroke-opacity="0.75" stroke-width="1.9"/>
<path d="M473.7 534.7 L600.0 534.7 L600.0 520.0 L480.0 520.0 Z" fill="#9A968C" stroke="#3F3C36" stroke-opacity="0.75" stroke-width="1.9"/>
<path d="M600.0 534.7 L726.3 534.7 L720.0 520.0 L600.0 520.0 Z" fill="#847F74" stroke="#3F3C36" stroke-opacity="0.75" stroke-width="1.9"/>
<path d="M726.3 534.7 L852.6 534.7 L840.0 520.0 L720.0 520.0 Z" fill="#9A968C" stroke="#3F3C36" stroke-opacity="0.75" stroke-width="1.9"/>
<path d="M852.6 534.7 L978.9 534.7 L960.0 520.0 L840.0 520.0 Z" fill="#847F74" stroke="#3F3C36" stroke-opacity="0.75" stroke-width="1.9"/>
<path d="M852.6 534.7 L978.9 534.7 L960.0 520.0 L840.0 520.0 Z" fill="#FFFFFF" opacity="0.04"/>
<path d="M978.9 534.7 L1105.3 534.7 L1080.0 520.0 L960.0 520.0 Z" fill="#847F74" stroke="#3F3C36" stroke-opacity="0.75" stroke-width="1.9"/>
<path d="M1105.3 534.7 L1231.6 534.7 L1200.0 520.0 L1080.0 520.0 Z" fill="#847F74" stroke="#3F3C36" stroke-opacity="0.75" stroke-width="1.9"/>
<path d="M1231.6 534.7 L1357.9 534.7 L1320.0 520.0 L1200.0 520.0 Z" fill="#847F74" stroke="#3F3C36" stroke-opacity="0.75" stroke-width="1.9"/>
<path d="M-120.0 520.0 L0.0 520.0 L28.6 506.7 L-85.7 506.7 Z" fill="#9A968C" stroke="#3F3C36" stroke-opacity="0.75" stroke-width="1.8"/>
<path d="M0.0 520.0 L120.0 520.0 L142.9 506.7 L28.6 506.7 Z" fill="#9A968C" stroke="#3F3C36" stroke-opacity="0.75" stroke-width="1.8"/>
<path d="M120.0 520.0 L240.0 520.0 L257.1 506.7 L142.9 506.7 Z" fill="#847F74" stroke="#3F3C36" stroke-opacity="0.75" stroke-width="1.8"/>
<path d="M240.0 520.0 L360.0 520.0 L371.4 506.7 L257.1 506.7 Z" fill="#847F74" stroke="#3F3C36" stroke-opacity="0.75" stroke-width="1.8"/>
<path d="M360.0 520.0 L480.0 520.0 L485.7 506.7 L371.4 506.7 Z" fill="#9A968C" stroke="#3F3C36" stroke-opacity="0.75" stroke-width="1.8"/>
<path d="M480.0 520.0 L600.0 520.0 L600.0 506.7 L485.7 506.7 Z" fill="#9A968C" stroke="#3F3C36" stroke-opacity="0.75" stroke-width="1.8"/>
<path d="M600.0 520.0 L720.0 520.0 L714.3 506.7 L600.0 506.7 Z" fill="#9A968C" stroke="#3F3C36" stroke-opacity="0.75" stroke-width="1.8"/>
<path d="M720.0 520.0 L840.0 520.0 L828.6 506.7 L714.3 506.7 Z" fill="#847F74" stroke="#3F3C36" stroke-opacity="0.75" stroke-width="1.8"/>
<path d="M840.0 520.0 L960.0 520.0 L942.9 506.7 L828.6 506.7 Z" fill="#847F74" stroke="#3F3C36" stroke-opacity="0.75" stroke-width="1.8"/>
<path d="M960.0 520.0 L1080.0 520.0 L1057.1 506.7 L942.9 506.7 Z" fill="#6B675E" stroke="#3F3C36" stroke-opacity="0.75" stroke-width="1.8"/>
<path d="M1080.0 520.0 L1200.0 520.0 L1171.4 506.7 L1057.1 506.7 Z" fill="#847F74" stroke="#3F3C36" stroke-opacity="0.75" stroke-width="1.8"/>
<path d="M1200.0 520.0 L1320.0 520.0 L1285.7 506.7 L1171.4 506.7 Z" fill="#6B675E" stroke="#3F3C36" stroke-opacity="0.75" stroke-width="1.8"/>
<path d="M-85.7 506.7 L28.6 506.7 L54.5 494.5 L-54.5 494.5 Z" fill="#847F74" stroke="#3F3C36" stroke-opacity="0.75" stroke-width="1.6"/>
<path d="M-85.7 506.7 L28.6 506.7 L54.5 494.5 L-54.5 494.5 Z" fill="#FFFFFF" opacity="0.03"/>
<path d="M28.6 506.7 L142.9 506.7 L163.6 494.5 L54.5 494.5 Z" fill="#847F74" stroke="#3F3C36" stroke-opacity="0.75" stroke-width="1.6"/>
<path d="M142.9 506.7 L257.1 506.7 L272.7 494.5 L163.6 494.5 Z" fill="#9A968C" stroke="#3F3C36" stroke-opacity="0.75" stroke-width="1.6"/>
<path d="M257.1 506.7 L371.4 506.7 L381.8 494.5 L272.7 494.5 Z" fill="#9A968C" stroke="#3F3C36" stroke-opacity="0.75" stroke-width="1.6"/>
<path d="M257.1 506.7 L371.4 506.7 L381.8 494.5 L272.7 494.5 Z" fill="#FFFFFF" opacity="0.06"/>
<path d="M371.4 506.7 L485.7 506.7 L490.9 494.5 L381.8 494.5 Z" fill="#9A968C" stroke="#3F3C36" stroke-opacity="0.75" stroke-width="1.6"/>
<path d="M371.4 506.7 L485.7 506.7 L490.9 494.5 L381.8 494.5 Z" fill="#FFFFFF" opacity="0.08"/>
<path d="M485.7 506.7 L600.0 506.7 L600.0 494.5 L490.9 494.5 Z" fill="#6B675E" stroke="#3F3C36" stroke-opacity="0.75" stroke-width="1.6"/>
<path d="M485.7 506.7 L600.0 506.7 L600.0 494.5 L490.9 494.5 Z" fill="#FFFFFF" opacity="0.04"/>
<path d="M600.0 506.7 L714.3 506.7 L709.1 494.5 L600.0 494.5 Z" fill="#9A968C" stroke="#3F3C36" stroke-opacity="0.75" stroke-width="1.6"/>
<path d="M714.3 506.7 L828.6 506.7 L818.2 494.5 L709.1 494.5 Z" fill="#847F74" stroke="#3F3C36" stroke-opacity="0.75" stroke-width="1.6"/>
<path d="M714.3 506.7 L828.6 506.7 L818.2 494.5 L709.1 494.5 Z" fill="#FFFFFF" opacity="0.04"/>
<path d="M828.6 506.7 L942.9 506.7 L927.3 494.5 L818.2 494.5 Z" fill="#847F74" stroke="#3F3C36" stroke-opacity="0.75" stroke-width="1.6"/>
<path d="M942.9 506.7 L1057.1 506.7 L1036.4 494.5 L927.3 494.5 Z" fill="#847F74" stroke="#3F3C36" stroke-opacity="0.75" stroke-width="1.6"/>
<path d="M1057.1 506.7 L1171.4 506.7 L1145.5 494.5 L1036.4 494.5 Z" fill="#9A968C" stroke="#3F3C36" stroke-opacity="0.75" stroke-width="1.6"/>
<path d="M1171.4 506.7 L1285.7 506.7 L1254.5 494.5 L1145.5 494.5 Z" fill="#9A968C" stroke="#3F3C36" stroke-opacity="0.75" stroke-width="1.6"/>
<path d="M-54.5 494.5 L54.5 494.5 L78.3 483.5 L-26.1 483.5 Z" fill="#847F74" stroke="#3F3C36" stroke-opacity="0.75" stroke-width="1.5"/>
<path d="M54.5 494.5 L163.6 494.5 L182.6 483.5 L78.3 483.5 Z" fill="#6B675E" stroke="#3F3C36" stroke-opacity="0.75" stroke-width="1.5"/>
<path d="M54.5 494.5 L163.6 494.5 L182.6 483.5 L78.3 483.5 Z" fill="#FFFFFF" opacity="0.08"/>
<path d="M163.6 494.5 L272.7 494.5 L287.0 483.5 L182.6 483.5 Z" fill="#9A968C" stroke="#3F3C36" stroke-opacity="0.75" stroke-width="1.5"/>
<path d="M163.6 494.5 L272.7 494.5 L287.0 483.5 L182.6 483.5 Z" fill="#FFFFFF" opacity="0.07"/>
<path d="M272.7 494.5 L381.8 494.5 L391.3 483.5 L287.0 483.5 Z" fill="#847F74" stroke="#3F3C36" stroke-opacity="0.75" stroke-width="1.5"/>
<path d="M272.7 494.5 L381.8 494.5 L391.3 483.5 L287.0 483.5 Z" fill="#FFFFFF" opacity="0.02"/>
<path d="M381.8 494.5 L490.9 494.5 L495.7 483.5 L391.3 483.5 Z" fill="#9A968C" stroke="#3F3C36" stroke-opacity="0.75" stroke-width="1.5"/>
<path d="M381.8 494.5 L490.9 494.5 L495.7 483.5 L391.3 483.5 Z" fill="#FFFFFF" opacity="0.04"/>
<path d="M490.9 494.5 L600.0 494.5 L600.0 483.5 L495.7 483.5 Z" fill="#6B675E" stroke="#3F3C36" stroke-opacity="0.75" stroke-width="1.5"/>
<path d="M600.0 494.5 L709.1 494.5 L704.3 483.5 L600.0 483.5 Z" fill="#847F74" stroke="#3F3C36" stroke-opacity="0.75" stroke-width="1.5"/>
<path d="M709.1 494.5 L818.2 494.5 L808.7 483.5 L704.3 483.5 Z" fill="#6B675E" stroke="#3F3C36" stroke-opacity="0.75" stroke-width="1.5"/>
<path d="M709.1 494.5 L818.2 494.5 L808.7 483.5 L704.3 483.5 Z" fill="#FFFFFF" opacity="0.02"/>
<path d="M818.2 494.5 L927.3 494.5 L913.0 483.5 L808.7 483.5 Z" fill="#9A968C" stroke="#3F3C36" stroke-opacity="0.75" stroke-width="1.5"/>
<path d="M818.2 494.5 L927.3 494.5 L913.0 483.5 L808.7 483.5 Z" fill="#FFFFFF" opacity="0.04"/>
<path d="M927.3 494.5 L1036.4 494.5 L1017.4 483.5 L913.0 483.5 Z" fill="#9A968C" stroke="#3F3C36" stroke-opacity="0.75" stroke-width="1.5"/>
<path d="M927.3 494.5 L1036.4 494.5 L1017.4 483.5 L913.0 483.5 Z" fill="#FFFFFF" opacity="0.09"/>
<path d="M1036.4 494.5 L1145.5 494.5 L1121.7 483.5 L1017.4 483.5 Z" fill="#847F74" stroke="#3F3C36" stroke-opacity="0.75" stroke-width="1.5"/>
<path d="M1145.5 494.5 L1254.5 494.5 L1226.1 483.5 L1121.7 483.5 Z" fill="#9A968C" stroke="#3F3C36" stroke-opacity="0.75" stroke-width="1.5"/>
<path d="M-26.1 483.5 L78.3 483.5 L100.0 473.3 L0.0 473.3 Z" fill="#847F74" stroke="#3F3C36" stroke-opacity="0.75" stroke-width="1.4"/>
<path d="M78.3 483.5 L182.6 483.5 L200.0 473.3 L100.0 473.3 Z" fill="#9A968C" stroke="#3F3C36" stroke-opacity="0.75" stroke-width="1.4"/>
<path d="M182.6 483.5 L287.0 483.5 L300.0 473.3 L200.0 473.3 Z" fill="#9A968C" stroke="#3F3C36" stroke-opacity="0.75" stroke-width="1.4"/>
<path d="M182.6 483.5 L287.0 483.5 L300.0 473.3 L200.0 473.3 Z" fill="#FFFFFF" opacity="0.03"/>
<path d="M287.0 483.5 L391.3 483.5 L400.0 473.3 L300.0 473.3 Z" fill="#6B675E" stroke="#3F3C36" stroke-opacity="0.75" stroke-width="1.4"/>
<path d="M391.3 483.5 L495.7 483.5 L500.0 473.3 L400.0 473.3 Z" fill="#847F74" stroke="#3F3C36" stroke-opacity="0.75" stroke-width="1.4"/>
<path d="M495.7 483.5 L600.0 483.5 L600.0 473.3 L500.0 473.3 Z" fill="#847F74" stroke="#3F3C36" stroke-opacity="0.75" stroke-width="1.4"/>
<path d="M600.0 483.5 L704.3 483.5 L700.0 473.3 L600.0 473.3 Z" fill="#847F74" stroke="#3F3C36" stroke-opacity="0.75" stroke-width="1.4"/>
<path d="M600.0 483.5 L704.3 483.5 L700.0 473.3 L600.0 473.3 Z" fill="#FFFFFF" opacity="0.08"/>
<path d="M704.3 483.5 L808.7 483.5 L800.0 473.3 L700.0 473.3 Z" fill="#9A968C" stroke="#3F3C36" stroke-opacity="0.75" stroke-width="1.4"/>
<path d="M808.7 483.5 L913.0 483.5 L900.0 473.3 L800.0 473.3 Z" fill="#9A968C" stroke="#3F3C36" stroke-opacity="0.75" stroke-width="1.4"/>
<path d="M913.0 483.5 L1017.4 483.5 L1000.0 473.3 L900.0 473.3 Z" fill="#847F74" stroke="#3F3C36" stroke-opacity="0.75" stroke-width="1.4"/>
<path d="M1017.4 483.5 L1121.7 483.5 L1100.0 473.3 L1000.0 473.3 Z" fill="#847F74" stroke="#3F3C36" stroke-opacity="0.75" stroke-width="1.4"/>
<path d="M1017.4 483.5 L1121.7 483.5 L1100.0 473.3 L1000.0 473.3 Z" fill="#FFFFFF" opacity="0.08"/>
<path d="M1121.7 483.5 L1226.1 483.5 L1200.0 473.3 L1100.0 473.3 Z" fill="#9A968C" stroke="#3F3C36" stroke-opacity="0.75" stroke-width="1.4"/>
<path d="M0.0 473.3 L100.0 473.3 L120.0 464.0 L24.0 464.0 Z" fill="#9A968C" stroke="#3F3C36" stroke-opacity="0.75" stroke-width="1.2"/>
<path d="M0.0 473.3 L100.0 473.3 L120.0 464.0 L24.0 464.0 Z" fill="#FFFFFF" opacity="0.06"/>
<path d="M100.0 473.3 L200.0 473.3 L216.0 464.0 L120.0 464.0 Z" fill="#6B675E" stroke="#3F3C36" stroke-opacity="0.75" stroke-width="1.2"/>
<path d="M200.0 473.3 L300.0 473.3 L312.0 464.0 L216.0 464.0 Z" fill="#9A968C" stroke="#3F3C36" stroke-opacity="0.75" stroke-width="1.2"/>
<path d="M300.0 473.3 L400.0 473.3 L408.0 464.0 L312.0 464.0 Z" fill="#6B675E" stroke="#3F3C36" stroke-opacity="0.75" stroke-width="1.2"/>
<path d="M400.0 473.3 L500.0 473.3 L504.0 464.0 L408.0 464.0 Z" fill="#9A968C" stroke="#3F3C36" stroke-opacity="0.75" stroke-width="1.2"/>
<path d="M500.0 473.3 L600.0 473.3 L600.0 464.0 L504.0 464.0 Z" fill="#6B675E" stroke="#3F3C36" stroke-opacity="0.75" stroke-width="1.2"/>
<path d="M500.0 473.3 L600.0 473.3 L600.0 464.0 L504.0 464.0 Z" fill="#FFFFFF" opacity="0.08"/>
<path d="M600.0 473.3 L700.0 473.3 L696.0 464.0 L600.0 464.0 Z" fill="#847F74" stroke="#3F3C36" stroke-opacity="0.75" stroke-width="1.2"/>
<path d="M600.0 473.3 L700.0 473.3 L696.0 464.0 L600.0 464.0 Z" fill="#FFFFFF" opacity="0.05"/>
<path d="M700.0 473.3 L800.0 473.3 L792.0 464.0 L696.0 464.0 Z" fill="#9A968C" stroke="#3F3C36" stroke-opacity="0.75" stroke-width="1.2"/>
<path d="M800.0 473.3 L900.0 473.3 L888.0 464.0 L792.0 464.0 Z" fill="#9A968C" stroke="#3F3C36" stroke-opacity="0.75" stroke-width="1.2"/>
<path d="M900.0 473.3 L1000.0 473.3 L984.0 464.0 L888.0 464.0 Z" fill="#6B675E" stroke="#3F3C36" stroke-opacity="0.75" stroke-width="1.2"/>
<path d="M1000.0 473.3 L1100.0 473.3 L1080.0 464.0 L984.0 464.0 Z" fill="#9A968C" stroke="#3F3C36" stroke-opacity="0.75" stroke-width="1.2"/>
<path d="M1100.0 473.3 L1200.0 473.3 L1176.0 464.0 L1080.0 464.0 Z" fill="#847F74" stroke="#3F3C36" stroke-opacity="0.75" stroke-width="1.2"/>
<path d="M24.0 464.0 L120.0 464.0 L138.5 455.4 L46.2 455.4 Z" fill="#9A968C" stroke="#3F3C36" stroke-opacity="0.75" stroke-width="1.1"/>
<path d="M24.0 464.0 L120.0 464.0 L138.5 455.4 L46.2 455.4 Z" fill="#FFFFFF" opacity="0.05"/>
<path d="M120.0 464.0 L216.0 464.0 L230.8 455.4 L138.5 455.4 Z" fill="#847F74" stroke="#3F3C36" stroke-opacity="0.75" stroke-width="1.1"/>
<path d="M216.0 464.0 L312.0 464.0 L323.1 455.4 L230.8 455.4 Z" fill="#847F74" stroke="#3F3C36" stroke-opacity="0.75" stroke-width="1.1"/>
<path d="M216.0 464.0 L312.0 464.0 L323.1 455.4 L230.8 455.4 Z" fill="#FFFFFF" opacity="0.05"/>
<path d="M312.0 464.0 L408.0 464.0 L415.4 455.4 L323.1 455.4 Z" fill="#9A968C" stroke="#3F3C36" stroke-opacity="0.75" stroke-width="1.1"/>
<path d="M408.0 464.0 L504.0 464.0 L507.7 455.4 L415.4 455.4 Z" fill="#847F74" stroke="#3F3C36" stroke-opacity="0.75" stroke-width="1.1"/>
<path d="M408.0 464.0 L504.0 464.0 L507.7 455.4 L415.4 455.4 Z" fill="#FFFFFF" opacity="0.06"/>
<path d="M504.0 464.0 L600.0 464.0 L600.0 455.4 L507.7 455.4 Z" fill="#847F74" stroke="#3F3C36" stroke-opacity="0.75" stroke-width="1.1"/>
<path d="M600.0 464.0 L696.0 464.0 L692.3 455.4 L600.0 455.4 Z" fill="#847F74" stroke="#3F3C36" stroke-opacity="0.75" stroke-width="1.1"/>
<path d="M696.0 464.0 L792.0 464.0 L784.6 455.4 L692.3 455.4 Z" fill="#847F74" stroke="#3F3C36" stroke-opacity="0.75" stroke-width="1.1"/>
<path d="M696.0 464.0 L792.0 464.0 L784.6 455.4 L692.3 455.4 Z" fill="#FFFFFF" opacity="0.07"/>
<path d="M792.0 464.0 L888.0 464.0 L876.9 455.4 L784.6 455.4 Z" fill="#6B675E" stroke="#3F3C36" stroke-opacity="0.75" stroke-width="1.1"/>
<path d="M888.0 464.0 L984.0 464.0 L969.2 455.4 L876.9 455.4 Z" fill="#9A968C" stroke="#3F3C36" stroke-opacity="0.75" stroke-width="1.1"/>
<path d="M984.0 464.0 L1080.0 464.0 L1061.5 455.4 L969.2 455.4 Z" fill="#847F74" stroke="#3F3C36" stroke-opacity="0.75" stroke-width="1.1"/>
<path d="M984.0 464.0 L1080.0 464.0 L1061.5 455.4 L969.2 455.4 Z" fill="#FFFFFF" opacity="0.09"/>
<path d="M1080.0 464.0 L1176.0 464.0 L1153.8 455.4 L1061.5 455.4 Z" fill="#9A968C" stroke="#3F3C36" stroke-opacity="0.75" stroke-width="1.1"/>
<path d="M46.2 455.4 L138.5 455.4 L154.3 448.0 L65.1 448.0 Z" fill="#9A968C" stroke="#3F3C36" stroke-opacity="0.75" stroke-width="0.9"/>
<path d="M46.2 455.4 L138.5 455.4 L154.3 448.0 L65.1 448.0 Z" fill="#FFFFFF" opacity="0.09"/>
<path d="M138.5 455.4 L230.8 455.4 L243.4 448.0 L154.3 448.0 Z" fill="#847F74" stroke="#3F3C36" stroke-opacity="0.75" stroke-width="0.9"/>
<path d="M230.8 455.4 L323.1 455.4 L332.6 448.0 L243.4 448.0 Z" fill="#847F74" stroke="#3F3C36" stroke-opacity="0.75" stroke-width="0.9"/>
<path d="M323.1 455.4 L415.4 455.4 L421.7 448.0 L332.6 448.0 Z" fill="#9A968C" stroke="#3F3C36" stroke-opacity="0.75" stroke-width="0.9"/>
<path d="M415.4 455.4 L507.7 455.4 L510.9 448.0 L421.7 448.0 Z" fill="#9A968C" stroke="#3F3C36" stroke-opacity="0.75" stroke-width="0.9"/>
<path d="M415.4 455.4 L507.7 455.4 L510.9 448.0 L421.7 448.0 Z" fill="#FFFFFF" opacity="0.08"/>
<path d="M507.7 455.4 L600.0 455.4 L600.0 448.0 L510.9 448.0 Z" fill="#6B675E" stroke="#3F3C36" stroke-opacity="0.75" stroke-width="0.9"/>
<path d="M507.7 455.4 L600.0 455.4 L600.0 448.0 L510.9 448.0 Z" fill="#FFFFFF" opacity="0.05"/>
<path d="M600.0 455.4 L692.3 455.4 L689.1 448.0 L600.0 448.0 Z" fill="#9A968C" stroke="#3F3C36" stroke-opacity="0.75" stroke-width="0.9"/>
<path d="M692.3 455.4 L784.6 455.4 L778.3 448.0 L689.1 448.0 Z" fill="#9A968C" stroke="#3F3C36" stroke-opacity="0.75" stroke-width="0.9"/>
<path d="M692.3 455.4 L784.6 455.4 L778.3 448.0 L689.1 448.0 Z" fill="#FFFFFF" opacity="0.07"/>
<path d="M784.6 455.4 L876.9 455.4 L867.4 448.0 L778.3 448.0 Z" fill="#6B675E" stroke="#3F3C36" stroke-opacity="0.75" stroke-width="0.9"/>
<path d="M876.9 455.4 L969.2 455.4 L956.6 448.0 L867.4 448.0 Z" fill="#847F74" stroke="#3F3C36" stroke-opacity="0.75" stroke-width="0.9"/>
<path d="M969.2 455.4 L1061.5 455.4 L1045.7 448.0 L956.6 448.0 Z" fill="#9A968C" stroke="#3F3C36" stroke-opacity="0.75" stroke-width="0.9"/>
<path d="M969.2 455.4 L1061.5 455.4 L1045.7 448.0 L956.6 448.0 Z" fill="#FFFFFF" opacity="0.03"/>
<path d="M1061.5 455.4 L1153.8 455.4 L1134.9 448.0 L1045.7 448.0 Z" fill="#9A968C" stroke="#3F3C36" stroke-opacity="0.75" stroke-width="0.9"/>
<path d="M1061.5 455.4 L1153.8 455.4 L1134.9 448.0 L1045.7 448.0 Z" fill="#FFFFFF" opacity="0.07"/>
<rect x="154" y="438" width="891" height="12" fill="#3F3C36" opacity="0.75"/>
<path d="M427 578 q 59 10 -151 -64" fill="none" stroke="#2E2C28" stroke-opacity="0.40" stroke-width="2.4"/>
<path d="M502 524 q 55 24 103 -62" fill="none" stroke="#2E2C28" stroke-opacity="0.34" stroke-width="2.8"/>
<path d="M1127 693 q -70 -32 -157 -46" fill="none" stroke="#2E2C28" stroke-opacity="0.29" stroke-width="4.0"/>
<path d="M340 684 q 68 -6 -40 122" fill="none" stroke="#2E2C28" stroke-opacity="0.36" stroke-width="3.2"/>
<path d="M528 603 q -19 21 76 8" fill="none" stroke="#2E2C28" stroke-opacity="0.37" stroke-width="2.2"/>
<path d="M679 366 q 69 1 104 40" fill="none" stroke="#2E2C28" stroke-opacity="0.22" stroke-width="4.4"/>
<path d="M849 564 q -28 -36 -164 118" fill="none" stroke="#2E2C28" stroke-opacity="0.43" stroke-width="3.2"/>
<path d="M518 679 q -44 20 179 -38" fill="none" stroke="#2E2C28" stroke-opacity="0.37" stroke-width="2.2"/>
<path d="M585 426 q 56 -25 112 -54" fill="none" stroke="#2E2C28" stroke-opacity="0.27" stroke-width="4.5"/>
<path d="M420 527 q -23 -33 -32 105" fill="none" stroke="#2E2C28" stroke-opacity="0.44" stroke-width="2.7"/>
<path d="M1056 421 q -54 16 128 91" fill="none" stroke="#2E2C28" stroke-opacity="0.26" stroke-width="3.9"/>
<path d="M295 785 q -28 36 -9 -51" fill="none" stroke="#2E2C28" stroke-opacity="0.22" stroke-width="2.2"/>
<path d="M135 276 q -1 -6 -9 -89" fill="none" stroke="#2E2C28" stroke-opacity="0.24" stroke-width="2.4"/>
<path d="M803 615 q -22 26 53 23" fill="none" stroke="#2E2C28" stroke-opacity="0.18" stroke-width="2.9"/>
<path d="M598 284 q 9 2 -101 -43" fill="none" stroke="#2E2C28" stroke-opacity="0.25" stroke-width="4.8"/>
<path d="M753 714 q 30 -16 -138 30" fill="none" stroke="#2E2C28" stroke-opacity="0.20" stroke-width="3.1"/>
<path d="M226 541 q 64 2 -160 41" fill="none" stroke="#2E2C28" stroke-opacity="0.20" stroke-width="3.1"/>
<path d="M476 557 q -31 33 -48 80" fill="none" stroke="#2E2C28" stroke-opacity="0.26" stroke-width="2.1"/>
<ellipse cx="788" cy="391" rx="94" ry="62" fill="#3A362F" opacity="0.13"/>
<ellipse cx="933" cy="595" rx="143" ry="44" fill="#3A362F" opacity="0.08"/>
<ellipse cx="542" cy="322" rx="95" ry="55" fill="#3A362F" opacity="0.11"/>
<ellipse cx="1" cy="508" rx="86" ry="46" fill="#3A362F" opacity="0.06"/>
<ellipse cx="560" cy="623" rx="117" ry="27" fill="#3A362F" opacity="0.11"/>
<ellipse cx="1195" cy="484" rx="137" ry="78" fill="#3A362F" opacity="0.07"/>
<ellipse cx="550" cy="265" rx="135" ry="69" fill="#3A362F" opacity="0.08"/>
<rect width="1200" height="800" fill="url(#lp51)"/>
<rect width="1200" height="800" fill="url(#fg51)"/>
<rect width="1200" height="800" fill="#0E0F11" opacity="0.24"/>
<rect width="1200" height="800" filter="url(#g51)" style="mix-blend-mode:soft-light"/>
</svg>
