<svg xmlns="http://www.w3.org/2000/svg" viewBox="0 0 1200 800" width="1200" height="800" preserveAspectRatio="xMidYMid slice" role="img">
<defs>
<filter id="g53" x="0" y="0" width="100%" height="100%"><feTurbulence type="fractalNoise" baseFrequency="0.9" numOctaves="3" seed="374" result="n"/><feColorMatrix in="n" type="saturate" values="0"/><feComponentTransfer><feFuncA type="linear" slope="0.13"/></feComponentTransfer></filter>
<linearGradient id="w53" x1="0" y1="0" x2="0.2" y2="1"><stop offset="0" stop-color="#A5A199"/><stop offset="1" stop-color="#8E8A80"/></linearGradient>
<radialGradient id="lp53" cx="0.5" cy="0.42" r="0.62"><stop offset="0" stop-color="#FFFFFF" stop-opacity="0.30"/><stop offset="0.55" stop-color="#FFFFFF" stop-opacity="0.05"/><stop offset="1" stop-color="#0E0F11" stop-opacity="0.55"/></radialGradient>
<linearGradient id="fg53" x1="0" y1="1" x2="0" y2="0"><stop offset="0" stop-color="#0E0F11" stop-opacity="0.55"/><stop offset="0.4" stop-color="#0E0F11" stop-opacity="0.10"/><stop offset="1" stop-color="#0E0F11" stop-opacity="0"/></linearGradient>
</defs>
<rect width="1200" height="800" fill="url(#w53)"/>
<path d="M-600 0 L154 24 L154 448 L-600 800 Z" fill="#6B675E" opacity="0.9"/>
<path d="M-600 0 L154 24 L154 448 L-600 800 Z" fill="#0E0F11" opacity="0.25"/>
<path d="M-297 282 L-297 658" stroke="#3F3C36" stroke-opacity="0.45" stroke-width="2"/>
<path d="M-116 273 L-116 574" stroke="#3F3C36" stroke-opacity="0.45" stroke-width="2"/>
<path d="M5 268 L5 518" stroke="#3F3C36" stroke-opacity="0.45" stroke-width="2"/>
<path d="M90 264 L90 478" stroke="#3F3C36" stroke-opacity="0.45" stroke-width="2"/>
<path d="M1800 0 L1046 24 L1046 448 L1800 800 Z" fill="#6B675E" opacity="0.9"/>
<path d="M1800 0 L1046 24 L1046 448 L1800 800 Z" fill="#0E0F11" opacity="0.25"/>
<path d="M1497 282 L1497 658" stroke="#3F3C36" stroke-opacity="0.45" stroke-width="2"/>
<path d="M1316 273 L1316 574" stroke="#3F3C36" stroke-opacity="0.45" stroke-width="2"/>
<path d="M1195 268 L1195 518" stroke="#3F3C36" stroke-opacity="0.45" stroke-width="2"/>
<path d="M1110 264 L1110 478" stroke="#3F3C36" stroke-opacity="0.45" stroke-width="2"/>
<rect x="154" y="24" width="891" height="424" fill="#8E8A80"/>
<rect x="154.3" y="24.0" width="89.1" height="53.0" fill="#9A968C" stroke="#3F3C36" stroke-opacity="0.65" stroke-width="1.6"/>
<rect x="243.4" y="24.0" width="89.1" height="53.0" fill="#9A968C" stroke="#3F3C36" stroke-opacity="0.65" stroke-width="1.6"/>
<rect x="332.6" y="24.0" width="89.1" height="53.0" fill="#9A968C" stroke="#3F3C36" stroke-opacity="0.65" stroke-width="1.6"/>
<rect x="421.7" y="24.0" width="89.1" height="53.0" fill="#6B675E" stroke="#3F3C36" stroke-opacity="0.65" stroke-width="1.6"/>
<rect x="510.9" y="24.0" width="89.1" height="53.0" fill="#9A968C" stroke="#3F3C36" stroke-opacity="0.65" stroke-width="1.6"/>
<rect x="600.0" y="24.0" width="89.1" height="53.0" fill="#6B675E" stroke="#3F3C36" stroke-opacity="0.65" stroke-width="1.6"/>
<rect x="689.1" y="24.0" width="89.1" height="53.0" fill="#6B675E" stroke="#3F3C36" stroke-opacity="0.65" stroke-width="1.6"/>
<rect x="778.3" y="24.0" width="89.1" height="53.0" fill="#9A968C" stroke="#3F3C36" stroke-opacity="0.65" stroke-width="1.6"/>
<rect x="867.4" y="24.0" width="89.1" height="53.0" fill="#6B675E" stroke="#3F3C36" stroke-opacity="0.65" stroke-width="1.6"/>
<rect x="956.6" y="24.0" width="89.1" height="53.0" fill="#9A968C" stroke="#3F3C36" stroke-opacity="0.65" stroke-width="1.6"/>
<rect x="154.3" y="77.0" width="89.1" height="53.0" fill="#6B675E" stroke="#3F3C36" stroke-opacity="0.65" stroke-width="1.6"/>
<rect x="243.4" y="77.0" width="89.1" height="53.0" fill="#9A968C" stroke="#3F3C36" stroke-opacity="0.65" stroke-width="1.6"/>
<rect x="332.6" y="77.0" width="89.1" height="53.0" fill="#6B675E" stroke="#3F3C36" stroke-opacity="0.65" stroke-width="1.6"/>
<rect x="421.7" y="77.0" width="89.1" height="53.0" fill="#9A968C" stroke="#3F3C36" stroke-opacity="0.65" stroke-width="1.6"/>
<rect x="510.9" y="77.0" width="89.1" height="53.0" fill="#9A968C" stroke="#3F3C36" stroke-opacity="0.65" stroke-width="1.6"/>
<rect x="600.0" y="77.0" width="89.1" height="53.0" fill="#847F74" stroke="#3F3C36" stroke-opacity="0.65" stroke-width="1.6"/>
<rect x="689.1" y="77.0" width="89.1" height="53.0" fill="#847F74" stroke="#3F3C36" stroke-opacity="0.65" stroke-width="1.6"/>
<rect x="778.3" y="77.0" width="89.1" height="53.0" fill="#6B675E" stroke="#3F3C36" stroke-opacity="0.65" stroke-width="1.6"/>
<rect x="867.4" y="77.0" width="89.1" height="53.0" fill="#6B675E" stroke="#3F3C36" stroke-opacity="0.65" stroke-width="1.6"/>
<rect x="956.6" y="77.0" width="89.1" height="53.0" fill="#9A968C" stroke="#3F3C36" stroke-opacity="0.65" stroke-width="1.6"/>
<rect x="154.3" y="130.0" width="89.1" height="53.0" fill="#847F74" stroke="#3F3C36" stroke-opacity="0.65" stroke-width="1.6"/>
<rect x="243.4" y="130.0" width="89.1" height="53.0" fill="#6B675E" stroke="#3F3C36" stroke-opacity="0.65" stroke-width="1.6"/>
<rect x="332.6" y="130.0" width="89.1" height="53.0" fill="#847F74" stroke="#3F3C36" stroke-opacity="0.65" stroke-width="1.6"/>
<rect x="421.7" y="130.0" width="89.1" height="53.0" fill="#6B675E" stroke="#3F3C36" stroke-opacity="0.65" stroke-width="1.6"/>
<rect x="510.9" y="130.0" width="89.1" height="53.0" fill="#9A968C" stroke="#3F3C36" stroke-opacity="0.65" stroke-width="1.6"/>
<rect x="600.0" y="130.0" width="89.1" height="53.0" fill="#6B675E" stroke="#3F3C36" stroke-opacity="0.65" stroke-width="1.6"/>
<rect x="689.1" y="130.0" width="89.1" height="53.0" fill="#9A968C" stroke="#3F3C36" stroke-opacity="0.65" stroke-width="1.6"/>
<rect x="778.3" y="130.0" width="89.1" height="53.0" fill="#6B675E" stroke="#3F3C36" stroke-opacity="0.65" stroke-width="1.6"/>
<rect x="867.4" y="130.0" width="89.1" height="53.0" fill="#9A968C" stroke="#3F3C36" stroke-opacity="0.65" stroke-width="1.6"/>
<rect x="956.6" y="130.0" width="89.1" height="53.0" fill="#9A968C" stroke="#3F3C36" stroke-opacity="0.65" stroke-width="1.6"/>
<rect x="154.3" y="183.0" width="89.1" height="53.0" fill="#6B675E" stroke="#3F3C36" stroke-opacity="0.65" stroke-width="1.6"/>
<rect x="243.4" y="183.0" width="89.1" height="53.0" fill="#847F74" stroke="#3F3C36" stroke-opacity="0.65" stroke-width="1.6"/>
<rect x="332.6" y="183.0" width="89.1" height="53.0" fill="#6B675E" stroke="#3F3C36" stroke-opacity="0.65" stroke-width="1.6"/>
<rect x="421.7" y="183.0" width="89.1" height="53.0" fill="#9A968C" stroke="#3F3C36" stroke-opacity="0.65" stroke-width="1.6"/>
<rect x="510.9" y="183.0" width="89.1" height="53.0" fill="#9A968C" stroke="#3F3C36" stroke-opacity="0.65" stroke-width="1.6"/>
<rect x="600.0" y="183.0" width="89.1" height="53.0" fill="#847F74" stroke="#3F3C36" stroke-opacity="0.65" stroke-width="1.6"/>
<rect x="689.1" y="183.0" width="89.1" height="53.0" fill="#6B675E" stroke="#3F3C36" stroke-opacity="0.65" stroke-width="1.6"/>
<rect x="778.3" y="183.0" width="89.1" height="53.0" fill="#9A968C" stroke="#3F3C36" stroke-opacity="0.65" stroke-width="1.6"/>
<rect x="867.4" y="183.0" width="89.1" height="53.0" fill="#6B675E" stroke="#3F3C36" stroke-opacity="0.65" stroke-width="1.6"/>
<rect x="956.6" y="183.0" width="89.1" height="53.0" fill="#9A968C" stroke="#3F3C36" stroke-opacity="0.65" stroke-width="1.6"/>
<rect x="154.3" y="236.0" width="89.1" height="53.0" fill="#847F74" stroke="#3F3C36" stroke-opacity="0.65" stroke-width="1.6"/>
<rect x="243.4" y="236.0" width="89.1" height="53.0" fill="#9A968C" stroke="#3F3C36" stroke-opacity="0.65" stroke-width="1.6"/>
<rect x="332.6" y="236.0" width="89.1" height="53.0" fill="#847F74" stroke="#3F3C36" stroke-opacity="0.65" stroke-width="1.6"/>
<rect x="421.7" y="236.0" width="89.1" height="53.0" fill="#9A968C" stroke="#3F3C36" stroke-opacity="0.65" stroke-width="1.6"/>
<rect x="510.9" y="236.0" width="89.1" height="53.0" fill="#847F74" stroke="#3F3C36" stroke-opacity="0.65" stroke-width="1.6"/>
<rect x="600.0" y="236.0" width="89.1" height="53.0" fill="#9A968C" stroke="#3F3C36" stroke-opacity="0.65" stroke-width="1.6"/>
<rect x="689.1" y="236.0" width="89.1" height="53.0" fill="#9A968C" stroke="#3F3C36" stroke-opacity="0.65" stroke-width="1.6"/>
<rect x="778.3" y="236.0" width="89.1" height="53.0" fill="#6B675E" stroke="#3F3C36" stroke-opacity="0.65" stroke-width="1.6"/>
<rect x="867.4" y="236.0" width="89.1" height="53.0" fill="#9A968C" stroke="#3F3C36" stroke-opacity="0.65" stroke-width="1.6"/>
<rect x="956.6" y="236.0" width="89.1" height="53.0" fill="#9A968C" stroke="#3F3C36" stroke-opacity="0.65" stroke-width="1.6"/>
<rect x="154.3" y="289.0" width="89.1" height="53.0" fill="#6B675E" stroke="#3F3C36" stroke-opacity="0.65" stroke-width="1.6"/>
<rect x="243.4" y="289.0" width="89.1" height="53.0" fill="#9A968C" stroke="#3F3C36" stroke-opacity="0.65" stroke-width="1.6"/>
<rect x="332.6" y="289.0" width="89.1" height="53.0" fill="#9A968C" stroke="#3F3C36" stroke-opacity="0.65" stroke-width="1.6"/>
<rect x="421.7" y="289.0" width="89.1" height="53.0" fill="#9A968C" stroke="#3F3C36" stroke-opacity="0.65" stroke-width="1.6"/>
<rect x="510.9" y="289.0" width="89.1" height="53.0" fill="#847F74" stroke="#3F3C36" stroke-opacity="0.65" stroke-width="1.6"/>
<rect x="600.0" y="289.0" width="89.1" height="53.0" fill="#9A968C" stroke="#3F3C36" stroke-opacity="0.65" stroke-width="1.6"/>
<rect x="689.1" y="289.0" width="89.1" height="53.0" fill="#9A968C" stroke="#3F3C36" stroke-opacity="0.65" stroke-width="1.6"/>
<rect x="778.3" y="289.0" width="89.1" height="53.0" fill="#6B675E" stroke="#3F3C36" stroke-opacity="0.65" stroke-width="1.6"/>
<rect x="867.4" y="289.0" width="89.1" height="53.0" fill="#9A968C" stroke="#3F3C36" stroke-opacity="0.65" stroke-width="1.6"/>
<rect x="956.6" y="289.0" width="89.1" height="53.0" fill="#847F74" stroke="#3F3C36" stroke-opacity="0.65" stroke-width="1.6"/>
<rect x="154.3" y="342.0" width="89.1" height="53.0" fill="#9A968C" stroke="#3F3C36" stroke-opacity="0.65" stroke-width="1.6"/>
<rect x="243.4" y="342.0" width="89.1" height="53.0" fill="#6B675E" stroke="#3F3C36" stroke-opacity="0.65" stroke-width="1.6"/>
<rect x="332.6" y="342.0" width="89.1" height="53.0" fill="#6B675E" stroke="#3F3C36" stroke-opacity="0.65" stroke-width="1.6"/>
<rect x="421.7" y="342.0" width="89.1" height="53.0" fill="#847F74" stroke="#3F3C36" stroke-opacity="0.65" stroke-width="1.6"/>
<rect x="510.9" y="342.0" width="89.1" height="53.0" fill="#9A968C" stroke="#3F3C36" stroke-opacity="0.65" stroke-width="1.6"/>
<rect x="600.0" y="342.0" width="89.1" height="53.0" fill="#6B675E" stroke="#3F3C36" stroke-opacity="0.65" stroke-width="1.6"/>
<rect x="689.1" y="342.0" width="89.1" height="53.0" fill="#9A968C" stroke="#3F3C36" stroke-opacity="0.65" stroke-width="1.6"/>
<rect x="778.3" y="342.0" width="89.1" height="53.0" fill="#9A968C" stroke="#3F3C36" stroke-opacity="0.65" stroke-width="1.6"/>
<rect x="867.4" y="342.0" width="89.1" height="53.0" fill="#9A968C" stroke="#3F3C36" stroke-opacity="0.65" stroke-width="1.6"/>
<rect x="956.6" y="342.0" width="89.1" height="53.0" fill="#9A968C" stroke="#3F3C36" stroke-opacity="0.65" stroke-width="1.6"/>
<rect x="154.3" y="395.0" width="89.1" height="53.0" fill="#9A968C" stroke="#3F3C36" stroke-opacity="0.65" stroke-width="1.6"/>
<rect x="243.4" y="395.0" width="89.1" height="53.0" fill="#6B675E" stroke="#3F3C36" stroke-opacity="0.65" stroke-width="1.6"/>
<rect x="332.6" y="395.0" width="89.1" height="53.0" fill="#6B675E" stroke="#3F3C36" stroke-opacity="0.65" stroke-width="1.6"/>
<rect x="421.7" y="395.0" width="89.1" height="53.0" fill="#9A968C" stroke="#3F3C36" stroke-opacity="0.65" stroke-width="1.6"/>
<rect x="510.9" y="395.0" width="89.1" height="53.0" fill="#847F74" stroke="#3F3C36" stroke-opacity="0.65" stroke-width="1.6"/>
<rect x="600.0" y="395.0" width="89.1" height="53.0" fill="#6B675E" stroke="#3F3C36" stroke-opacity="0.65" stroke-width="1.6"/>
<rect x="689.1" y="395.0" width="89.1" height="53.0" fill="#9A968C" stroke="#3F3C36" stroke-opacity="0.65" stroke-width="1.6"/>
<rect x="778.3" y="395.0" width="89.1" height="53.0" fill="#847F74" stroke="#3F3C36" stroke-opacity="0.65" stroke-width="1.6"/>
<rect x="867.4" y="395.0" width="89.1" height="53.0" fill="#847F74" stroke="#3F3C36" stroke-opacity="0.65" stroke-width="1.6"/>
<rect x="956.6" y="395.0" width="89.1" height="53.0" fill="#9A968C" stroke="#3F3C36" stroke-opacity="0.65" stroke-width="1.6"/>
<path d="M-360.0 800.0 L-120.0 800.0 L-60.6 753.8 L-280.7 753.8 Z" fill="#6B675E" stroke="#3F3C36" stroke-opacity="0.75" stroke-width="3.2"/>
<path d="M-360.0 800.0 L-120.0 800.0 L-60.6 753.8 L-280.7 753.8 Z" fill="#FFFFFF" opacity="0.03"/>
<path d="M-120.0 800.0 L120.0 800.0 L159.6 753.8 L-60.6 753.8 Z" fill="#9A968C" stroke="#3F3C36" stroke-opacity="0.75" stroke-width="3.2"/>
<path d="M120.0 800.0 L360.0 800.0 L379.8 753.8 L159.6 753.8 Z" fill="#847F74" stroke="#3F3C36" stroke-opacity="0.75" stroke-width="3.2"/>
<path d="M360.0 800.0 L600.0 800.0 L600.0 753.8 L379.8 753.8 Z" fill="#847F74" stroke="#3F3C36" stroke-opacity="0.75" stroke-width="3.2"/>
<path d="M600.0 800.0 L840.0 800.0 L820.2 753.8 L600.0 753.8 Z" fill="#847F74" stroke="#3F3C36" stroke-opacity="0.75" stroke-width="3.2"/>
<path d="M840.0 800.0 L1080.0 800.0 L1040.4 753.8 L820.2 753.8 Z" fill="#6B675E" stroke="#3F3C36" stroke-opacity="0.75" stroke-width="3.2"/>
<path d="M1080.0 800.0 L1320.0 800.0 L1260.6 753.8 L1040.4 753.8 Z" fill="#847F74" stroke="#3F3C36" stroke-opacity="0.75" stroke-width="3.2"/>
<path d="M1320.0 800.0 L1560.0 800.0 L1480.7 753.8 L1260.6 753.8 Z" fill="#6B675E" stroke="#3F3C36" stroke-opacity="0.75" stroke-width="3.2"/>
<path d="M-280.7 753.8 L-60.6 753.8 L-10.2 714.6 L-213.6 714.6 Z" fill="#9A968C" stroke="#3F3C36" stroke-opacity="0.75" stroke-width="3.1"/>
<path d="M-280.7 753.8 L-60.6 753.8 L-10.2 714.6 L-213.6 714.6 Z" fill="#FFFFFF" opacity="0.04"/>
<path d="M-60.6 753.8 L159.6 753.8 L193.2 714.6 L-10.2 714.6 Z" fill="#847F74" stroke="#3F3C36" stroke-opacity="0.75" stroke-width="3.1"/>
<path d="M159.6 753.8 L379.8 753.8 L396.6 714.6 L193.2 714.6 Z" fill="#847F74" stroke="#3F3C36" stroke-opacity="0.75" stroke-width="3.1"/>
<path d="M379.8 753.8 L600.0 753.8 L600.0 714.6 L396.6 714.6 Z" fill="#9A968C" stroke="#3F3C36" stroke-opacity="0.75" stroke-width="3.1"/>
<path d="M379.8 753.8 L600.0 753.8 L600.0 714.6 L396.6 714.6 Z" fill="#FFFFFF" opacity="0.04"/>
<path d="M600.0 753.8 L820.2 753.8 L803.4 714.6 L600.0 714.6 Z" fill="#9A968C" stroke="#3F3C36" stroke-opacity="0.75" stroke-width="3.1"/>
<path d="M820.2 753.8 L1040.4 753.8 L1006.8 714.6 L803.4 714.6 Z" fill="#847F74" stroke="#3F3C36" stroke-opacity="0.75" stroke-width="3.1"/>
<path d="M1040.4 753.8 L1260.6 753.8 L1210.2 714.6 L1006.8 714.6 Z" fill="#847F74" stroke="#3F3C36" stroke-opacity="0.75" stroke-width="3.1"/>
<path d="M1260.6 753.8 L1480.7 753.8 L1413.6 714.6 L1210.2 714.6 Z" fill="#847F74" stroke="#3F3C36" stroke-opacity="0.75" stroke-width="3.1"/>
<path d="M-213.6 714.6 L-10.2 714.6 L33.1 680.9 L-155.9 680.9 Z" fill="#847F74" stroke="#3F3C36" stroke-opacity="0.75" stroke-width="2.9"/>
<path d="M-10.2 714.6 L193.2 714.6 L222.0 680.9 L33.1 680.9 Z" fill="#6B675E" stroke="#3F3C36" stroke-opacity="0.75" stroke-width="2.9"/>
<path d="M193.2 714.6 L396.6 714.6 L411.0 680.9 L222.0 680.9 Z" fill="#9A968C" stroke="#3F3C36" stroke-opacity="0.75" stroke-width="2.9"/>
<path d="M396.6 714.6 L600.0 714.6 L600.0 680.9 L411.0 680.9 Z" fill="#847F74" stroke="#3F3C36" stroke-opacity="0.75" stroke-width="2.9"/>
<path d="M600.0 714.6 L803.4 714.6 L789.0 680.9 L600.0 680.9 Z" fill="#9A968C" stroke="#3F3C36" stroke-opacity="0.75" stroke-width="2.9"/>
<path d="M803.4 714.6 L1006.8 714.6 L978.0 680.9 L789.0 680.9 Z" fill="#9A968C" stroke="#3F3C36" stroke-opacity="0.75" stroke-width="2.9"/>
<path d="M1006.8 714.6 L1210.2 714.6 L1166.9 680.9 L978.0 680.9 Z" fill="#847F74" stroke="#3F3C36" stroke-opacity="0.75" stroke-width="2.9"/>
<path d="M1210.2 714.6 L1413.6 714.6 L1355.9 680.9 L1166.9 680.9 Z" fill="#847F74" stroke="#3F3C36" stroke-opacity="0.75" stroke-width="2.9"/>
<path d="M1210.2 714.6 L1413.6 714.6 L1355.9 680.9 L1166.9 680.9 Z" fill="#FFFFFF" opacity="0.05"/>
<path d="M-155.9 680.9 L33.1 680.9 L70.6 651.8 L-105.9 651.8 Z" fill="#847F74" stroke="#3F3C36" stroke-opacity="0.75" stroke-width="2.8"/>
<path d="M33.1 680.9 L222.0 680.9 L247.1 651.8 L70.6 651.8 Z" fill="#847F74" stroke="#3F3C36" stroke-opacity="0.75" stroke-width="2.8"/>
<path d="M222.0 680.9 L411.0 680.9 L423.5 651.8 L247.1 651.8 Z" fill="#847F74" stroke="#3F3C36" stroke-opacity="0.75" stroke-width="2.8"/>
<path d="M222.0 680.9 L411.0 680.9 L423.5 651.8 L247.1 651.8 Z" fill="#FFFFFF" opacity="0.04"/>
<path d="M411.0 680.9 L600.0 680.9 L600.0 651.8 L423.5 651.8 Z" fill="#847F74" stroke="#3F3C36" stroke-opacity="0.75" stroke-width="2.8"/>
<path d="M600.0 680.9 L789.0 680.9 L776.5 651.8 L600.0 651.8 Z" fill="#9A968C" stroke="#3F3C36" stroke-opacity="0.75" stroke-width="2.8"/>
<path d="M789.0 680.9 L978.0 680.9 L952.9 651.8 L776.5 651.8 Z" fill="#6B675E" stroke="#3F3C36" stroke-opacity="0.75" stroke-width="2.8"/>
<path d="M789.0 680.9 L978.0 680.9 L952.9 651.8 L776.5 651.8 Z" fill="#FFFFFF" opacity="0.03"/>
<path d="M978.0 680.9 L1166.9 680.9 L1129.4 651.8 L952.9 651.8 Z" fill="#9A968C" stroke="#3F3C36" stroke-opacity="0.75" stroke-width="2.8"/>
<path d="M1166.9 680.9 L1355.9 680.9 L1305.9 651.8 L1129.4 651.8 Z" fill="#847F74" stroke="#3F3C36" stroke-opacity="0.75" stroke-width="2.8"/>
<path d="M-282.4 651.8 L-105.9 651.8 L-62.1 626.2 L-227.6 626.2 Z" fill="#847F74" stroke="#3F3C36" stroke-opacity="0.75" stroke-width="2.7"/>
<path d="M-105.9 651.8 L70.6 651.8 L103.4 626.2 L-62.1 626.2 Z" fill="#847F74" stroke="#3F3C36" stroke-opacity="0.75" stroke-width="2.7"/>
<path d="M70.6 651.8 L247.1 651.8 L269.0 626.2 L103.4 626.2 Z" fill="#9A968C" stroke="#3F3C36" stroke-opacity="0.75" stroke-width="2.7"/>
<path d="M70.6 651.8 L247.1 651.8 L269.0 626.2 L103.4 626.2 Z" fill="#FFFFFF" opacity="0.02"/>
<path d="M247.1 651.8 L423.5 651.8 L434.5 626.2 L269.0 626.2 Z" fill="#9A968C" stroke="#3F3C36" stroke-opacity="0.75" stroke-width="2.7"/>
<path d="M247.1 651.8 L423.5 651.8 L434.5 626.2 L269.0 626.2 Z" fill="#FFFFFF" opacity="0.03"/>
<path d="M423.5 651.8 L600.0 651.8 L600.0 626.2 L434.5 626.2 Z" fill="#9A968C" stroke="#3F3C36" stroke-opacity="0.75" stroke-width="2.7"/>
<path d="M423.5 651.8 L600.0 651.8 L600.0 626.2 L434.5 626.2 Z" fill="#FFFFFF" opacity="0.06"/>
<path d="M600.0 651.8 L776.5 651.8 L765.5 626.2 L600.0 626.2 Z" fill="#9A968C" stroke="#3F3C36" stroke-opacity="0.75" stroke-width="2.7"/>
<path d="M776.5 651.8 L952.9 651.8 L931.0 626.2 L765.5 626.2 Z" fill="#6B675E" stroke="#3F3C36" stroke-opacity="0.75" stroke-width="2.7"/>
<path d="M952.9 651.8 L1129.4 651.8 L1096.6 626.2 L931.0 626.2 Z" fill="#847F74" stroke="#3F3C36" stroke-opacity="0.75" stroke-width="2.7"/>
<path d="M1129.4 651.8 L1305.9 651.8 L1262.1 626.2 L1096.6 626.2 Z" fill="#9A968C" stroke="#3F3C36" stroke-opacity="0.75" stroke-width="2.7"/>
<path d="M1129.4 651.8 L1305.9 651.8 L1262.1 626.2 L1096.6 626.2 Z" fill="#FFFFFF" opacity="0.04"/>
<path d="M1305.9 651.8 L1482.4 651.8 L1427.6 626.2 L1262.1 626.2 Z" fill="#847F74" stroke="#3F3C36" stroke-opacity="0.75" stroke-width="2.7"/>
<path d="M-227.6 626.2 L-62.1 626.2 L-23.4 603.6 L-179.2 603.6 Z" fill="#9A968C" stroke="#3F3C36" stroke-opacity="0.75" stroke-width="2.6"/>
<path d="M-62.1 626.2 L103.4 626.2 L132.5 603.6 L-23.4 603.6 Z" fill="#9A968C" stroke="#3F3C36" stroke-opacity="0.75" stroke-width="2.6"/>
<path d="M103.4 626.2 L269.0 626.2 L288.3 603.6 L132.5 603.6 Z" fill="#9A968C" stroke="#3F3C36" stroke-opacity="0.75" stroke-width="2.6"/>
<path d="M269.0 626.2 L434.5 626.2 L444.2 603.6 L288.3 603.6 Z" fill="#9A968C" stroke="#3F3C36" stroke-opacity="0.75" stroke-width="2.6"/>
<path d="M434.5 626.2 L600.0 626.2 L600.0 603.6 L444.2 603.6 Z" fill="#6B675E" stroke="#3F3C36" stroke-opacity="0.75" stroke-width="2.6"/>
<path d="M434.5 626.2 L600.0 626.2 L600.0 603.6 L444.2 603.6 Z" fill="#FFFFFF" opacity="0.08"/>
<path d="M600.0 626.2 L765.5 626.2 L755.8 603.6 L600.0 603.6 Z" fill="#6B675E" stroke="#3F3C36" stroke-opacity="0.75" stroke-width="2.6"/>
<path d="M600.0 626.2 L765.5 626.2 L755.8 603.6 L600.0 603.6 Z" fill="#FFFFFF" opacity="0.07"/>
<path d="M765.5 626.2 L931.0 626.2 L911.7 603.6 L755.8 603.6 Z" fill="#9A968C" stroke="#3F3C36" stroke-opacity="0.75" stroke-width="2.6"/>
<path d="M931.0 626.2 L1096.6 626.2 L1067.5 603.6 L911.7 603.6 Z" fill="#9A968C" stroke="#3F3C36" stroke-opacity="0.75" stroke-width="2.6"/>
<path d="M931.0 626.2 L1096.6 626.2 L1067.5 603.6 L911.7 603.6 Z" fill="#FFFFFF" opacity="0.07"/>
<path d="M1096.6 626.2 L1262.1 626.2 L1223.4 603.6 L1067.5 603.6 Z" fill="#9A968C" stroke="#3F3C36" stroke-opacity="0.75" stroke-width="2.6"/>
<path d="M1262.1 626.2 L1427.6 626.2 L1379.2 603.6 L1223.4 603.6 Z" fill="#847F74" stroke="#3F3C36" stroke-opacity="0.75" stroke-width="2.6"/>
<path d="M1262.1 626.2 L1427.6 626.2 L1379.2 603.6 L1223.4 603.6 Z" fill="#FFFFFF" opacity="0.06"/>
<path d="M-179.2 603.6 L-23.4 603.6 L11.0 583.6 L-136.2 583.6 Z" fill="#9A968C" stroke="#3F3C36" stroke-opacity="0.75" stroke-width="2.4"/>
<path d="M-23.4 603.6 L132.5 603.6 L158.3 583.6 L11.0 583.6 Z" fill="#9A968C" stroke="#3F3C36" stroke-opacity="0.75" stroke-width="2.4"/>
<path d="M-23.4 603.6 L132.5 603.6 L158.3 583.6 L11.0 583.6 Z" fill="#FFFFFF" opacity="0.06"/>
<path d="M132.5 603.6 L288.3 603.6 L305.5 583.6 L158.3 583.6 Z" fill="#847F74" stroke="#3F3C36" stroke-opacity="0.75" stroke-width="2.4"/>
<path d="M288.3 603.6 L444.2 603.6 L452.8 583.6 L305.5 583.6 Z" fill="#9A968C" stroke="#3F3C36" stroke-opacity="0.75" stroke-width="2.4"/>
<path d="M444.2 603.6 L600.0 603.6 L600.0 583.6 L452.8 583.6 Z" fill="#9A968C" stroke="#3F3C36" stroke-opacity="0.75" stroke-width="2.4"/>
<path d="M444.2 603.6 L600.0 603.6 L600.0 583.6 L452.8 583.6 Z" fill="#FFFFFF" opacity="0.05"/>
<path d="M600.0 603.6 L755.8 603.6 L747.2 583.6 L600.0 583.6 Z" fill="#847F74" stroke="#3F3C36" stroke-opacity="0.75" stroke-width="2.4"/>
<path d="M755.8 603.6 L911.7 603.6 L894.5 583.6 L747.2 583.6 Z" fill="#6B675E" stroke="#3F3C36" stroke-opacity="0.75" stroke-width="2.4"/>
<path d="M755.8 603.6 L911.7 603.6 L894.5 583.6 L747.2 583.6 Z" fill="#FFFFFF" opacity="0.08"/>
<path d="M911.7 603.6 L1067.5 603.6 L1041.7 583.6 L894.5 583.6 Z" fill="#9A968C" stroke="#3F3C36" stroke-opacity="0.75" stroke-width="2.4"/>
<path d="M1067.5 603.6 L1223.4 603.6 L1189.0 583.6 L1041.7 583.6 Z" fill="#6B675E" stroke="#3F3C36" stroke-opacity="0.75" stroke-width="2.4"/>
<path d="M1067.5 603.6 L1223.4 603.6 L1189.0 583.6 L1041.7 583.6 Z" fill="#FFFFFF" opacity="0.05"/>
<path d="M1223.4 603.6 L1379.2 603.6 L1336.2 583.6 L1189.0 583.6 Z" fill="#6B675E" stroke="#3F3C36" stroke-opacity="0.75" stroke-width="2.4"/>
<path d="M-136.2 583.6 L11.0 583.6 L41.9 565.6 L-97.7 565.6 Z" fill="#9A968C" stroke="#3F3C36" stroke-opacity="0.75" stroke-width="2.3"/>
<path d="M11.0 583.6 L158.3 583.6 L181.4 565.6 L41.9 565.6 Z" fill="#9A968C" stroke="#3F3C36" stroke-opacity="0.75" stroke-width="2.3"/>
<path d="M11.0 583.6 L158.3 583.6 L181.4 565.6 L41.9 565.6 Z" fill="#FFFFFF" opacity="0.03"/>
<path d="M158.3 583.6 L305.5 583.6 L320.9 565.6 L181.4 565.6 Z" fill="#847F74" stroke="#3F3C36" stroke-opacity="0.75" stroke-width="2.3"/>
<path d="M305.5 583.6 L452.8 583.6 L460.5 565.6 L320.9 565.6 Z" fill="#9A968C" stroke="#3F3C36" stroke-opacity="0.75" stroke-width="2.3"/>
<path d="M452.8 583.6 L600.0 583.6 L600.0 565.6 L460.5 565.6 Z" fill="#9A968C" stroke="#3F3C36" stroke-opacity="0.75" stroke-width="2.3"/>
<path d="M600.0 583.6 L747.2 583.6 L739.5 565.6 L600.0 565.6 Z" fill="#847F74" stroke="#3F3C36" stroke-opacity="0.75" stroke-width="2.3"/>
<path d="M600.0 583.6 L747.2 583.6 L739.5 565.6 L600.0 565.6 Z" fill="#FFFFFF" opacity="0.06"/>
<path d="M747.2 583.6 L894.5 583.6 L879.1 565.6 L739.5 565.6 Z" fill="#9A968C" stroke="#3F3C36" stroke-opacity="0.75" stroke-width="2.3"/>
<path d="M894.5 583.6 L1041.7 583.6 L1018.6 565.6 L879.1 565.6 Z" fill="#9A968C" stroke="#3F3C36" stroke-opacity="0.75" stroke-width="2.3"/>
<path d="M1041.7 583.6 L1189.0 583.6 L1158.1 565.6 L1018.6 565.6 Z" fill="#6B675E" stroke="#3F3C36" stroke-opacity="0.75" stroke-width="2.3"/>
<path d="M1041.7 583.6 L1189.0 583.6 L1158.1 565.6 L1018.6 565.6 Z" fill="#FFFFFF" opacity="0.07"/>
<path d="M1189.0 583.6 L1336.2 583.6 L1297.7 565.6 L1158.1 565.6 Z" fill="#847F74" stroke="#3F3C36" stroke-opacity="0.75" stroke-width="2.3"/>
<path d="M1189.0 583.6 L1336.2 583.6 L1297.7 565.6 L1158.1 565.6 Z" fill="#FFFFFF" opacity="0.07"/>
<path d="M-237.2 565.6 L-97.7 565.6 L-63.0 549.4 L-195.6 549.4 Z" fill="#847F74" stroke="#3F3C36" stroke-opacity="0.75" stroke-width="2.2"/>
<path d="M-97.7 565.6 L41.9 565.6 L69.6 549.4 L-63.0 549.4 Z" fill="#9A968C" stroke="#3F3C36" stroke-opacity="0.75" stroke-width="2.2"/>
<path d="M41.9 565.6 L181.4 565.6 L202.2 549.4 L69.6 549.4 Z" fill="#9A968C" stroke="#3F3C36" stroke-opacity="0.75" stroke-width="2.2"/>
<path d="M181.4 565.6 L320.9 565.6 L334.8 549.4 L202.2 549.4 Z" fill="#847F74" stroke="#3F3C36" stroke-opacity="0.75" stroke-width="2.2"/>
<path d="M181.4 565.6 L320.9 565.6 L334.8 549.4 L202.2 549.4 Z" fill="#FFFFFF" opacity="0.09"/>
<path d="M320.9 565.6 L460.5 565.6 L467.4 549.4 L334.8 549.4 Z" fill="#6B675E" stroke="#3F3C36" stroke-opacity="0.75" stroke-width="2.2"/>
<path d="M460.5 565.6 L600.0 565.6 L600.0 549.4 L467.4 549.4 Z" fill="#6B675E" stroke="#3F3C36" stroke-opacity="0.75" stroke-width="2.2"/>
<path d="M600.0 565.6 L739.5 565.6 L732.6 549.4 L600.0 549.4 Z" fill="#847F74" stroke="#3F3C36" stroke-opacity="0.75" stroke-width="2.2"/>
<path d="M739.5 565.6 L879.1 565.6 L865.2 549.4 L732.6 549.4 Z" fill="#847F74" stroke="#3F3C36" stroke-opacity="0.75" stroke-width="2.2"/>
<path d="M879.1 565.6 L1018.6 565.6 L997.8 549.4 L865.2 549.4 Z" fill="#847F74" stroke="#3F3C36" stroke-opacity="0.75" stroke-width="2.2"/>
<path d="M1018.6 565.6 L1158.1 565.6 L1130.4 549.4 L997.8 549.4 Z" fill="#847F74" stroke="#3F3C36" stroke-opacity="0.75" stroke-width="2.2"/>
<path d="M1158.1 565.6 L1297.7 565.6 L1263.0 549.4 L1130.4 549.4 Z" fill="#9A968C" stroke="#3F3C36" stroke-opacity="0.75" stroke-width="2.2"/>
<path d="M1297.7 565.6 L1437.2 565.6 L1395.6 549.4 L1263.0 549.4 Z" fill="#847F74" stroke="#3F3C36" stroke-opacity="0.75" stroke-width="2.2"/>
<path d="M-195.6 549.4 L-63.0 549.4 L-31.6 534.7 L-157.9 534.7 Z" fill="#9A968C" stroke="#3F3C36" stroke-opacity="0.75" stroke-width="2.1"/>
<path d="M-63.0 549.4 L69.6 549.4 L94.7 534.7 L-31.6 534.7 Z" fill="#847F74" stroke="#3F3C36" stroke-opacity="0.75" stroke-width="2.1"/>
<path d="M-63.0 549.4 L69.6 549.4 L94.7 534.7 L-31.6 534.7 Z" fill="#FFFFFF" opacity="0.08"/>
<path d="M69.6 549.4 L202.2 549.4 L221.1 534.7 L94.7 534.7 Z" fill="#6B675E" stroke="#3F3C36" stroke-opacity="0.75" stroke-width="2.1"/>
<path d="M202.2 549.4 L334.8 549.4 L347.4 534.7 L221.1 534.7 Z" fill="#6B675E" stroke="#3F3C36" stroke-opacity="0.75" stroke-width="2.1"/>
<path d="M334.8 549.4 L467.4 549.4 L473.7 534.7 L347.4 534.7 Z" fill="#847F74" stroke="#3F3C36" stroke-opacity="0.75" stroke-width="2.1"/>
<path d="M467.4 549.4 L600.0 549.4 L600.0 534.7 L473.7 534.7 Z" fill="#6B675E" stroke="#3F3C36" stroke-opacity="0.75" stroke-width="2.1"/>
<path d="M600.0 549.4 L732.6 549.4 L726.3 534.7 L600.0 534.7 Z" fill="#9A968C" stroke="#3F3C36" stroke-opacity="0.75" stroke-width="2.1"/>
<path d="M600.0 549.4 L732.6 549.4 L726.3 534.7 L600.0 534.7 Z" fill="#FFFFFF" opacity="0.06"/>
<path d="M732.6 549.4 L865.2 549.4 L852.6 534.7 L726.3 534.7 Z" fill="#6B675E" stroke="#3F3C36" stroke-opacity="0.75" stroke-width="2.1"/>
<path d="M865.2 549.4 L997.8 549.4 L978.9 534.7 L852.6 534.7 Z" fill="#847F74" stroke="#3F3C36" stroke-opacity="0.75" stroke-width="2.1"/>
<path d="M865.2 549.4 L997.8 549.4 L978.9 534.7 L852.6 534.7 Z" fill="#FFFFFF" opacity="0.08"/>
<path d="M997.8 549.4 L1130.4 549.4 L1105.3 534.7 L978.9 534.7 Z" fill="#847F74" stroke="#3F3C36" stroke-opacity="0.75" stroke-width="2.1"/>
<path d="M1130.4 549.4 L1263.0 549.4 L1231.6 534.7 L1105.3 534.7 Z" fill="#9A968C" stroke="#3F3C36" stroke-opacity="0.75" stroke-width="2.1"/>
<path d="M1263.0 549.4 L1395.6 549.4 L1357.9 534.7 L1231.6 534.7 Z" fill="#9A968C" stroke="#3F3C36" stroke-opacity="0.75" stroke-width="2.1"/>
<path d="M-157.9 534.7 L-31.6 534.7 L-3.0 521.4 L-123.6 521.4 Z" fill="#847F74" stroke="#3F3C36" stroke-opacity="0.75" stroke-width="1.9"/>
<path d="M-157.9 534.7 L-31.6 534.7 L-3.0 521.4 L-123.6 521.4 Z" fill="#FFFFFF" opacity="0.03"/>
<path d="M-31.6 534.7 L94.7 534.7 L117.6 521.4 L-3.0 521.4 Z" fill="#847F74" stroke="#3F3C36" stroke-opacity="0.75" stroke-width="1.9"/>
<path d="M94.7 534.7 L221.1 534.7 L238.2 521.4 L117.6 521.4 Z" fill="#847F74" stroke="#3F3C36" stroke-opacity="0.75" stroke-width="1.9"/>
<path d="M221.1 534.7 L347.4 534.7 L358.8 521.4 L238.2 521.4 Z" fill="#6B675E" stroke="#3F3C36" stroke-opacity="0.75" stroke-width="1.9"/>
<path d="M347.4 534.7 L473.7 534.7 L479.4 521.4 L358.8 521.4 Z" fill="#9A968C" stroke="#3F3C36" stroke-opacity="0.75" stroke-width="1.9"/>
<path d="M347.4 534.7 L473.7 534.7 L479.4 521.4 L358.8 521.4 Z" fill="#FFFFFF" opacity="0.08"/>
<path d="M473.7 534.7 L600.0 534.7 L600.0 521.4 L479.4 521.4 Z" fill="#6B675E" stroke="#3F3C36" stroke-opacity="0.75" stroke-width="1.9"/>
<path d="M473.7 534.7 L600.0 534.7 L600.0 521.4 L479.4 521.4 Z" fill="#FFFFFF" opacity="0.03"/>
<path d="M600.0 534.7 L726.3 534.7 L720.6 521.4 L600.0 521.4 Z" fill="#847F74" stroke="#3F3C36" stroke-opacity="0.75" stroke-width="1.9"/>
<path d="M600.0 534.7 L726.3 534.7 L720.6 521.4 L600.0 521.4 Z" fill="#FFFFFF" opacity="0.06"/>
<path d="M726.3 534.7 L852.6 534.7 L841.2 521.4 L720.6 521.4 Z" fill="#847F74" stroke="#3F3C36" stroke-opacity="0.75" stroke-width="1.9"/>
<path d="M726.3 534.7 L852.6 534.7 L841.2 521.4 L720.6 521.4 Z" fill="#FFFFFF" opacity="0.08"/>
<path d="M852.6 534.7 L978.9 534.7 L961.8 521.4 L841.2 521.4 Z" fill="#9A968C" stroke="#3F3C36" stroke-opacity="0.75" stroke-width="1.9"/>
<path d="M852.6 534.7 L978.9 534.7 L961.8 521.4 L841.2 521.4 Z" fill="#FFFFFF" opacity="0.05"/>
<path d="M978.9 534.7 L1105.3 534.7 L1082.4 521.4 L961.8 521.4 Z" fill="#6B675E" stroke="#3F3C36" stroke-opacity="0.75" stroke-width="1.9"/>
<path d="M1105.3 534.7 L1231.6 534.7 L1203.0 521.4 L1082.4 521.4 Z" fill="#6B675E" stroke="#3F3C36" stroke-opacity="0.75" stroke-width="1.9"/>
<path d="M1231.6 534.7 L1357.9 534.7 L1323.6 521.4 L1203.0 521.4 Z" fill="#847F74" stroke="#3F3C36" stroke-opacity="0.75" stroke-width="1.9"/>
<path d="M-123.6 521.4 L-3.0 521.4 L23.1 509.2 L-92.3 509.2 Z" fill="#9A968C" stroke="#3F3C36" stroke-opacity="0.75" stroke-width="1.8"/>
<path d="M-3.0 521.4 L117.6 521.4 L138.5 509.2 L23.1 509.2 Z" fill="#9A968C" stroke="#3F3C36" stroke-opacity="0.75" stroke-width="1.8"/>
<path d="M-3.0 521.4 L117.6 521.4 L138.5 509.2 L23.1 509.2 Z" fill="#FFFFFF" opacity="0.05"/>
<path d="M117.6 521.4 L238.2 521.4 L253.8 509.2 L138.5 509.2 Z" fill="#6B675E" stroke="#3F3C36" stroke-opacity="0.75" stroke-width="1.8"/>
<path d="M238.2 521.4 L358.8 521.4 L369.2 509.2 L253.8 509.2 Z" fill="#847F74" stroke="#3F3C36" stroke-opacity="0.75" stroke-width="1.8"/>
<path d="M358.8 521.4 L479.4 521.4 L484.6 509.2 L369.2 509.2 Z" fill="#9A968C" stroke="#3F3C36" stroke-opacity="0.75" stroke-width="1.8"/>
<path d="M479.4 521.4 L600.0 521.4 L600.0 509.2 L484.6 509.2 Z" fill="#847F74" stroke="#3F3C36" stroke-opacity="0.75" stroke-width="1.8"/>
<path d="M600.0 521.4 L720.6 521.4 L715.4 509.2 L600.0 509.2 Z" fill="#847F74" stroke="#3F3C36" stroke-opacity="0.75" stroke-width="1.8"/>
<path d="M720.6 521.4 L841.2 521.4 L830.8 509.2 L715.4 509.2 Z" fill="#6B675E" stroke="#3F3C36" stroke-opacity="0.75" stroke-width="1.8"/>
<path d="M841.2 521.4 L961.8 521.4 L946.2 509.2 L830.8 509.2 Z" fill="#847F74" stroke="#3F3C36" stroke-opacity="0.75" stroke-width="1.8"/>
<path d="M841.2 521.4 L961.8 521.4 L946.2 509.2 L830.8 509.2 Z" fill="#FFFFFF" opacity="0.04"/>
<path d="M961.8 521.4 L1082.4 521.4 L1061.5 509.2 L946.2 509.2 Z" fill="#6B675E" stroke="#3F3C36" stroke-opacity="0.75" stroke-width="1.8"/>
<path d="M961.8 521.4 L1082.4 521.4 L1061.5 509.2 L946.2 509.2 Z" fill="#FFFFFF" opacity="0.04"/>
<path d="M1082.4 521.4 L1203.0 521.4 L1176.9 509.2 L1061.5 509.2 Z" fill="#847F74" stroke="#3F3C36" stroke-opacity="0.75" stroke-width="1.8"/>
<path d="M1203.0 521.4 L1323.6 521.4 L1292.3 509.2 L1176.9 509.2 Z" fill="#847F74" stroke="#3F3C36" stroke-opacity="0.75" stroke-width="1.8"/>
<path d="M-92.3 509.2 L23.1 509.2 L47.0 498.1 L-63.6 498.1 Z" fill="#9A968C" stroke="#3F3C36" stroke-opacity="0.75" stroke-width="1.7"/>
<path d="M23.1 509.2 L138.5 509.2 L157.6 498.1 L47.0 498.1 Z" fill="#847F74" stroke="#3F3C36" stroke-opacity="0.75" stroke-width="1.7"/>
<path d="M138.5 509.2 L253.8 509.2 L268.2 498.1 L157.6 498.1 Z" fill="#847F74" stroke="#3F3C36" stroke-opacity="0.75" stroke-width="1.7"/>
<path d="M138.5 509.2 L253.8 509.2 L268.2 498.1 L157.6 498.1 Z" fill="#FFFFFF" opacity="0.04"/>
<path d="M253.8 509.2 L369.2 509.2 L378.8 498.1 L268.2 498.1 Z" fill="#847F74" stroke="#3F3C36" stroke-opacity="0.75" stroke-width="1.7"/>
<path d="M369.2 509.2 L484.6 509.2 L489.4 498.1 L378.8 498.1 Z" fill="#9A968C" stroke="#3F3C36" stroke-opacity="0.75" stroke-width="1.7"/>
<path d="M369.2 509.2 L484.6 509.2 L489.4 498.1 L378.8 498.1 Z" fill="#FFFFFF" opacity="0.04"/>
<path d="M484.6 509.2 L600.0 509.2 L600.0 498.1 L489.4 498.1 Z" fill="#847F74" stroke="#3F3C36" stroke-opacity="0.75" stroke-width="1.7"/>
<path d="M600.0 509.2 L715.4 509.2 L710.6 498.1 L600.0 498.1 Z" fill="#9A968C" stroke="#3F3C36" stroke-opacity="0.75" stroke-width="1.7"/>
<path d="M600.0 509.2 L715.4 509.2 L710.6 498.1 L600.0 498.1 Z" fill="#FFFFFF" opacity="0.03"/>
<path d="M715.4 509.2 L830.8 509.2 L821.2 498.1 L710.6 498.1 Z" fill="#847F74" stroke="#3F3C36" stroke-opacity="0.75" stroke-width="1.7"/>
<path d="M830.8 509.2 L946.2 509.2 L931.8 498.1 L821.2 498.1 Z" fill="#6B675E" stroke="#3F3C36" stroke-opacity="0.75" stroke-width="1.7"/>
<path d="M946.2 509.2 L1061.5 509.2 L1042.4 498.1 L931.8 498.1 Z" fill="#9A968C" stroke="#3F3C36" stroke-opacity="0.75" stroke-width="1.7"/>
<path d="M1061.5 509.2 L1176.9 509.2 L1153.0 498.1 L1042.4 498.1 Z" fill="#847F74" stroke="#3F3C36" stroke-opacity="0.75" stroke-width="1.7"/>
<path d="M1176.9 509.2 L1292.3 509.2 L1263.6 498.1 L1153.0 498.1 Z" fill="#9A968C" stroke="#3F3C36" stroke-opacity="0.75" stroke-width="1.7"/>
<path d="M1176.9 509.2 L1292.3 509.2 L1263.6 498.1 L1153.0 498.1 Z" fill="#FFFFFF" opacity="0.09"/>
<path d="M-63.6 498.1 L47.0 498.1 L69.0 487.8 L-37.2 487.8 Z" fill="#847F74" stroke="#3F3C36" stroke-opacity="0.75" stroke-width="1.5"/>
<path d="M47.0 498.1 L157.6 498.1 L175.2 487.8 L69.0 487.8 Z" fill="#847F74" stroke="#3F3C36" stroke-opacity="0.75" stroke-width="1.5"/>
<path d="M157.6 498.1 L268.2 498.1 L281.4 487.8 L175.2 487.8 Z" fill="#847F74" stroke="#3F3C36" stroke-opacity="0.75" stroke-width="1.5"/>
<path d="M268.2 498.1 L378.8 498.1 L387.6 487.8 L281.4 487.8 Z" fill="#9A968C" stroke="#3F3C36" stroke-opacity="0.75" stroke-width="1.5"/>
<path d="M378.8 498.1 L489.4 498.1 L493.8 487.8 L387.6 487.8 Z" fill="#847F74" stroke="#3F3C36" stroke-opacity="0.75" stroke-width="1.5"/>
<path d="M378.8 498.1 L489.4 498.1 L493.8 487.8 L387.6 487.8 Z" fill="#FFFFFF" opacity="0.03"/>
<path d="M489.4 498.1 L600.0 498.1 L600.0 487.8 L493.8 487.8 Z" fill="#9A968C" stroke="#3F3C36" stroke-opacity="0.75" stroke-width="1.5"/>
<path d="M600.0 498.1 L710.6 498.1 L706.2 487.8 L600.0 487.8 Z" fill="#847F74" stroke="#3F3C36" stroke-opacity="0.75" stroke-width="1.5"/>
<path d="M710.6 498.1 L821.2 498.1 L812.4 487.8 L706.2 487.8 Z" fill="#9A968C" stroke="#3F3C36" stroke-opacity="0.75" stroke-width="1.5"/>
<path d="M821.2 498.1 L931.8 498.1 L918.6 487.8 L812.4 487.8 Z" fill="#847F74" stroke="#3F3C36" stroke-opacity="0.75" stroke-width="1.5"/>
<path d="M821.2 498.1 L931.8 498.1 L918.6 487.8 L812.4 487.8 Z" fill="#FFFFFF" opacity="0.04"/>
<path d="M931.8 498.1 L1042.4 498.1 L1024.8 487.8 L918.6 487.8 Z" fill="#847F74" stroke="#3F3C36" stroke-opacity="0.75" stroke-width="1.5"/>
<path d="M931.8 498.1 L1042.4 498.1 L1024.8 487.8 L918.6 487.8 Z" fill="#FFFFFF" opacity="0.08"/>
<path d="M1042.4 498.1 L1153.0 498.1 L1131.0 487.8 L1024.8 487.8 Z" fill="#6B675E" stroke="#3F3C36" stroke-opacity="0.75" stroke-width="1.5"/>
<path d="M1153.0 498.1 L1263.6 498.1 L1237.2 487.8 L1131.0 487.8 Z" fill="#847F74" stroke="#3F3C36" stroke-opacity="0.75" stroke-width="1.5"/>
<path d="M-37.2 487.8 L69.0 487.8 L89.4 478.3 L-12.8 478.3 Z" fill="#847F74" stroke="#3F3C36" stroke-opacity="0.75" stroke-width="1.4"/>
<path d="M-37.2 487.8 L69.0 487.8 L89.4 478.3 L-12.8 478.3 Z" fill="#FFFFFF" opacity="0.03"/>
<path d="M69.0 487.8 L175.2 487.8 L191.5 478.3 L89.4 478.3 Z" fill="#6B675E" stroke="#3F3C36" stroke-opacity="0.75" stroke-width="1.4"/>
<path d="M175.2 487.8 L281.4 487.8 L293.6 478.3 L191.5 478.3 Z" fill="#847F74" stroke="#3F3C36" stroke-opacity="0.75" stroke-width="1.4"/>
<path d="M281.4 487.8 L387.6 487.8 L395.7 478.3 L293.6 478.3 Z" fill="#6B675E" stroke="#3F3C36" stroke-opacity="0.75" stroke-width="1.4"/>
<path d="M387.6 487.8 L493.8 487.8 L497.9 478.3 L395.7 478.3 Z" fill="#847F74" stroke="#3F3C36" stroke-opacity="0.75" stroke-width="1.4"/>
<path d="M493.8 487.8 L600.0 487.8 L600.0 478.3 L497.9 478.3 Z" fill="#847F74" stroke="#3F3C36" stroke-opacity="0.75" stroke-width="1.4"/>
<path d="M600.0 487.8 L706.2 487.8 L702.1 478.3 L600.0 478.3 Z" fill="#847F74" stroke="#3F3C36" stroke-opacity="0.75" stroke-width="1.4"/>
<path d="M600.0 487.8 L706.2 487.8 L702.1 478.3 L600.0 478.3 Z" fill="#FFFFFF" opacity="0.04"/>
<path d="M706.2 487.8 L812.4 487.8 L804.3 478.3 L702.1 478.3 Z" fill="#6B675E" stroke="#3F3C36" stroke-opacity="0.75" stroke-width="1.4"/>
<path d="M812.4 487.8 L918.6 487.8 L906.4 478.3 L804.3 478.3 Z" fill="#6B675E" stroke="#3F3C36" stroke-opacity="0.75" stroke-width="1.4"/>
<path d="M918.6 487.8 L1024.8 487.8 L1008.5 478.3 L906.4 478.3 Z" fill="#6B675E" stroke="#3F3C36" stroke-opacity="0.75" stroke-width="1.4"/>
<path d="M918.6 487.8 L1024.8 487.8 L1008.5 478.3 L906.4 478.3 Z" fill="#FFFFFF" opacity="0.08"/>
<path d="M1024.8 487.8 L1131.0 487.8 L1110.6 478.3 L1008.5 478.3 Z" fill="#9A968C" stroke="#3F3C36" stroke-opacity="0.75" stroke-width="1.4"/>
<path d="M1024.8 487.8 L1131.0 487.8 L1110.6 478.3 L1008.5 478.3 Z" fill="#FFFFFF" opacity="0.04"/>
<path d="M1131.0 487.8 L1237.2 487.8 L1212.8 478.3 L1110.6 478.3 Z" fill="#6B675E" stroke="#3F3C36" stroke-opacity="0.75" stroke-width="1.4"/>
<path d="M1131.0 487.8 L1237.2 487.8 L1212.8 478.3 L1110.6 478.3 Z" fill="#FFFFFF" opacity="0.09"/>
<path d="M-12.8 478.3 L89.4 478.3 L108.2 469.5 L9.8 469.5 Z" fill="#9A968C" stroke="#3F3C36" stroke-opacity="0.75" stroke-width="1.3"/>
<path d="M89.4 478.3 L191.5 478.3 L206.6 469.5 L108.2 469.5 Z" fill="#847F74" stroke="#3F3C36" stroke-opacity="0.75" stroke-width="1.3"/>
<path d="M191.5 478.3 L293.6 478.3 L304.9 469.5 L206.6 469.5 Z" fill="#9A968C" stroke="#3F3C36" stroke-opacity="0.75" stroke-width="1.3"/>
<path d="M293.6 478.3 L395.7 478.3 L403.3 469.5 L304.9 469.5 Z" fill="#847F74" stroke="#3F3C36" stroke-opacity="0.75" stroke-width="1.3"/>
<path d="M293.6 478.3 L395.7 478.3 L403.3 469.5 L304.9 469.5 Z" fill="#FFFFFF" opacity="0.06"/>
<path d="M395.7 478.3 L497.9 478.3 L501.6 469.5 L403.3 469.5 Z" fill="#847F74" stroke="#3F3C36" stroke-opacity="0.75" stroke-width="1.3"/>
<path d="M497.9 478.3 L600.0 478.3 L600.0 469.5 L501.6 469.5 Z" fill="#847F74" stroke="#3F3C36" stroke-opacity="0.75" stroke-width="1.3"/>
<path d="M600.0 478.3 L702.1 478.3 L698.4 469.5 L600.0 469.5 Z" fill="#6B675E" stroke="#3F3C36" stroke-opacity="0.75" stroke-width="1.3"/>
<path d="M702.1 478.3 L804.3 478.3 L796.7 469.5 L698.4 469.5 Z" fill="#6B675E" stroke="#3F3C36" stroke-opacity="0.75" stroke-width="1.3"/>
<path d="M702.1 478.3 L804.3 478.3 L796.7 469.5 L698.4 469.5 Z" fill="#FFFFFF" opacity="0.06"/>
<path d="M804.3 478.3 L906.4 478.3 L895.1 469.5 L796.7 469.5 Z" fill="#6B675E" stroke="#3F3C36" stroke-opacity="0.75" stroke-width="1.3"/>
<path d="M906.4 478.3 L1008.5 478.3 L993.4 469.5 L895.1 469.5 Z" fill="#9A968C" stroke="#3F3C36" stroke-opacity="0.75" stroke-width="1.3"/>
<path d="M1008.5 478.3 L1110.6 478.3 L1091.8 469.5 L993.4 469.5 Z" fill="#9A968C" stroke="#3F3C36" stroke-opacity="0.75" stroke-width="1.3"/>
<path d="M1110.6 478.3 L1212.8 478.3 L1190.2 469.5 L1091.8 469.5 Z" fill="#9A968C" stroke="#3F3C36" stroke-opacity="0.75" stroke-width="1.3"/>
<path d="M9.8 469.5 L108.2 469.5 L125.7 461.3 L30.8 461.3 Z" fill="#847F74" stroke="#3F3C36" stroke-opacity="0.75" stroke-width="1.2"/>
<path d="M108.2 469.5 L206.6 469.5 L220.6 461.3 L125.7 461.3 Z" fill="#847F74" stroke="#3F3C36" stroke-opacity="0.75" stroke-width="1.2"/>
<path d="M206.6 469.5 L304.9 469.5 L315.4 461.3 L220.6 461.3 Z" fill="#9A968C" stroke="#3F3C36" stroke-opacity="0.75" stroke-width="1.2"/>
<path d="M304.9 469.5 L403.3 469.5 L410.3 461.3 L315.4 461.3 Z" fill="#6B675E" stroke="#3F3C36" stroke-opacity="0.75" stroke-width="1.2"/>
<path d="M403.3 469.5 L501.6 469.5 L505.1 461.3 L410.3 461.3 Z" fill="#847F74" stroke="#3F3C36" stroke-opacity="0.75" stroke-width="1.2"/>
<path d="M501.6 469.5 L600.0 469.5 L600.0 461.3 L505.1 461.3 Z" fill="#9A968C" stroke="#3F3C36" stroke-opacity="0.75" stroke-width="1.2"/>
<path d="M501.6 469.5 L600.0 469.5 L600.0 461.3 L505.1 461.3 Z" fill="#FFFFFF" opacity="0.09"/>
<path d="M600.0 469.5 L698.4 469.5 L694.9 461.3 L600.0 461.3 Z" fill="#9A968C" stroke="#3F3C36" stroke-opacity="0.75" stroke-width="1.2"/>
<path d="M698.4 469.5 L796.7 469.5 L789.7 461.3 L694.9 461.3 Z" fill="#847F74" stroke="#3F3C36" stroke-opacity="0.75" stroke-width="1.2"/>
<path d="M796.7 469.5 L895.1 469.5 L884.6 461.3 L789.7 461.3 Z" fill="#9A968C" stroke="#3F3C36" stroke-opacity="0.75" stroke-width="1.2"/>
<path d="M895.1 469.5 L993.4 469.5 L979.4 461.3 L884.6 461.3 Z" fill="#847F74" stroke="#3F3C36" stroke-opacity="0.75" stroke-width="1.2"/>
<path d="M895.1 469.5 L993.4 469.5 L979.4 461.3 L884.6 461.3 Z" fill="#FFFFFF" opacity="0.06"/>
<path d="M993.4 469.5 L1091.8 469.5 L1074.3 461.3 L979.4 461.3 Z" fill="#9A968C" stroke="#3F3C36" stroke-opacity="0.75" stroke-width="1.2"/>
<path d="M993.4 469.5 L1091.8 469.5 L1074.3 461.3 L979.4 461.3 Z" fill="#FFFFFF" opacity="0.03"/>
<path d="M1091.8 469.5 L1190.2 469.5 L1169.2 461.3 L1074.3 461.3 Z" fill="#847F74" stroke="#3F3C36" stroke-opacity="0.75" stroke-width="1.2"/>
<path d="M30.8 461.3 L125.7 461.3 L142.0 453.7 L50.4 453.7 Z" fill="#9A968C" stroke="#3F3C36" stroke-opacity="0.75" stroke-width="1.0"/>
<path d="M125.7 461.3 L220.6 461.3 L233.6 453.7 L142.0 453.7 Z" fill="#9A968C" stroke="#3F3C36" stroke-opacity="0.75" stroke-width="1.0"/>
<path d="M125.7 461.3 L220.6 461.3 L233.6 453.7 L142.0 453.7 Z" fill="#FFFFFF" opacity="0.07"/>
<path d="M220.6 461.3 L315.4 461.3 L325.2 453.7 L233.6 453.7 Z" fill="#6B675E" stroke="#3F3C36" stroke-opacity="0.75" stroke-width="1.0"/>
<path d="M315.4 461.3 L410.3 461.3 L416.8 453.7 L325.2 453.7 Z" fill="#9A968C" stroke="#3F3C36" stroke-opacity="0.75" stroke-width="1.0"/>
<path d="M315.4 461.3 L410.3 461.3 L416.8 453.7 L325.2 453.7 Z" fill="#FFFFFF" opacity="0.06"/>
<path d="M410.3 461.3 L505.1 461.3 L508.4 453.7 L416.8 453.7 Z" fill="#9A968C" stroke="#3F3C36" stroke-opacity="0.75" stroke-width="1.0"/>
<path d="M410.3 461.3 L505.1 461.3 L508.4 453.7 L416.8 453.7 Z" fill="#FFFFFF" opacity="0.07"/>
<path d="M505.1 461.3 L600.0 461.3 L600.0 453.7 L508.4 453.7 Z" fill="#6B675E" stroke="#3F3C36" stroke-opacity="0.75" stroke-width="1.0"/>
<path d="M600.0 461.3 L694.9 461.3 L691.6 453.7 L600.0 453.7 Z" fill="#847F74" stroke="#3F3C36" stroke-opacity="0.75" stroke-width="1.0"/>
<path d="M600.0 461.3 L694.9 461.3 L691.6 453.7 L600.0 453.7 Z" fill="#FFFFFF" opacity="0.08"/>
<path d="M694.9 461.3 L789.7 461.3 L783.2 453.7 L691.6 453.7 Z" fill="#847F74" stroke="#3F3C36" stroke-opacity="0.75" stroke-width="1.0"/>
<path d="M789.7 461.3 L884.6 461.3 L874.8 453.7 L783.2 453.7 Z" fill="#6B675E" stroke="#3F3C36" stroke-opacity="0.75" stroke-width="1.0"/>
<path d="M884.6 461.3 L979.4 461.3 L966.4 453.7 L874.8 453.7 Z" fill="#6B675E" stroke="#3F3C36" stroke-opacity="0.75" stroke-width="1.0"/>
<path d="M979.4 461.3 L1074.3 461.3 L1058.0 453.7 L966.4 453.7 Z" fill="#6B675E" stroke="#3F3C36" stroke-opacity="0.75" stroke-width="1.0"/>
<path d="M979.4 461.3 L1074.3 461.3 L1058.0 453.7 L966.4 453.7 Z" fill="#FFFFFF" opacity="0.09"/>
<path d="M1074.3 461.3 L1169.2 461.3 L1149.6 453.7 L1058.0 453.7 Z" fill="#9A968C" stroke="#3F3C36" stroke-opacity="0.75" stroke-width="1.0"/>
<path d="M50.4 453.7 L142.0 453.7 L154.3 448.0 L65.1 448.0 Z" fill="#6B675E" stroke="#3F3C36" stroke-opacity="0.75" stroke-width="0.9"/>
<path d="M142.0 453.7 L233.6 453.7 L243.4 448.0 L154.3 448.0 Z" fill="#6B675E" stroke="#3F3C36" stroke-opacity="0.75" stroke-width="0.9"/>
<path d="M233.6 453.7 L325.2 453.7 L332.6 448.0 L243.4 448.0 Z" fill="#847F74" stroke="#3F3C36" stroke-opacity="0.75" stroke-width="0.9"/>
<path d="M325.2 453.7 L416.8 453.7 L421.7 448.0 L332.6 448.0 Z" fill="#847F74" stroke="#3F3C36" stroke-opacity="0.75" stroke-width="0.9"/>
<path d="M325.2 453.7 L416.8 453.7 L421.7 448.0 L332.6 448.0 Z" fill="#FFFFFF" opacity="0.07"/>
<path d="M416.8 453.7 L508.4 453.7 L510.9 448.0 L421.7 448.0 Z" fill="#847F74" stroke="#3F3C36" stroke-opacity="0.75" stroke-width="0.9"/>
<path d="M416.8 453.7 L508.4 453.7 L510.9 448.0 L421.7 448.0 Z" fill="#FFFFFF" opacity="0.04"/>
<path d="M508.4 453.7 L600.0 453.7 L600.0 448.0 L510.9 448.0 Z" fill="#847F74" stroke="#3F3C36" stroke-opacity="0.75" stroke-width="0.9"/>
<path d="M600.0 453.7 L691.6 453.7 L689.1 448.0 L600.0 448.0 Z" fill="#847F74" stroke="#3F3C36" stroke-opacity="0.75" stroke-width="0.9"/>
<path d="M600.0 453.7 L691.6 453.7 L689.1 448.0 L600.0 448.0 Z" fill="#FFFFFF" opacity="0.08"/>
<path d="M691.6 453.7 L783.2 453.7 L778.3 448.0 L689.1 448.0 Z" fill="#847F74" stroke="#3F3C36" stroke-opacity="0.75" stroke-width="0.9"/>
<path d="M691.6 453.7 L783.2 453.7 L778.3 448.0 L689.1 448.0 Z" fill="#FFFFFF" opacity="0.06"/>
<path d="M783.2 453.7 L874.8 453.7 L867.4 448.0 L778.3 448.0 Z" fill="#9A968C" stroke="#3F3C36" stroke-opacity="0.75" stroke-width="0.9"/>
<path d="M874.8 453.7 L966.4 453.7 L956.6 448.0 L867.4 448.0 Z" fill="#9A968C" stroke="#3F3C36" stroke-opacity="0.75" stroke-width="0.9"/>
<path d="M966.4 453.7 L1058.0 453.7 L1045.7 448.0 L956.6 448.0 Z" fill="#6B675E" stroke="#3F3C36" stroke-opacity="0.75" stroke-width="0.9"/>
<path d="M1058.0 453.7 L1149.6 453.7 L1134.9 448.0 L1045.7 448.0 Z" fill="#847F74" stroke="#3F3C36" stroke-opacity="0.75" stroke-width="0.9"/>
<rect x="154" y="438" width="891" height="12" fill="#3F3C36" opacity="0.75"/>
<path d="M577 785 q -57 -28 -121 -74" fill="none" stroke="#2E2C28" stroke-opacity="0.45" stroke-width="2.2"/>
<path d="M200 799 q 18 5 -155 -12" fill="none" stroke="#2E2C28" stroke-opacity="0.18" stroke-width="4.3"/>
<path d="M1067 527 q 57 -32 52 60" fill="none" stroke="#2E2C28" stroke-opacity="0.39" stroke-width="2.8"/>
<path d="M217 535 q 10 26 -152 127" fill="none" stroke="#2E2C28" stroke-opacity="0.45" stroke-width="3.2"/>
<path d="M472 612 q -63 -25 -134 116" fill="none" stroke="#2E2C28" stroke-opacity="0.27" stroke-width="3.0"/>
<path d="M688 469 q 17 2 148 78" fill="none" stroke="#2E2C28" stroke-opacity="0.18" stroke-width="3.0"/>
<path d="M96 770 q 25 -28 123 61" fill="none" stroke="#2E2C28" stroke-opacity="0.22" stroke-width="3.4"/>
<path d="M1173 499 q 69 -17 -145 103" fill="none" stroke="#2E2C28" stroke-opacity="0.39" stroke-width="3.0"/>
<path d="M968 790 q -25 12 -70 -52" fill="none" stroke="#2E2C28" stroke-opacity="0.31" stroke-width="4.4"/>
<path d="M1 742 q -27 -23 -18 -72" fill="none" stroke="#2E2C28" stroke-opacity="0.22" stroke-width="2.9"/>
<path d="M244 516 q 49 36 -184 3" fill="none" stroke="#2E2C28" stroke-opacity="0.43" stroke-width="2.3"/>
<path d="M868 443 q 48 -28 -64 77" fill="none" stroke="#2E2C28" stroke-opacity="0.39" stroke-width="2.6"/>
<path d="M735 457 q 3 10 -69 -44" fill="none" stroke="#2E2C28" stroke-opacity="0.21" stroke-width="3.4"/>
<path d="M615 742 q -4 0 -103 90" fill="none" stroke="#2E2C28" stroke-opacity="0.28" stroke-width="2.5"/>
<path d="M654 729 q -27 -2 -155 -6" fill="none" stroke="#2E2C28" stroke-opacity="0.43" stroke-width="2.8"/>
<path d="M660 716 q -31 -12 68 -16" fill="none" stroke="#2E2C28" stroke-opacity="0.34" stroke-width="3.5"/>
<path d="M492 283 q 66 -32 150 -32" fill="none" stroke="#2E2C28" stroke-opacity="0.43" stroke-width="3.4"/>
<path d="M199 388 q -0 -17 -114 2" fill="none" stroke="#2E2C28" stroke-opacity="0.38" stroke-width="2.8"/>
<ellipse cx="1110" cy="544" rx="67" ry="65" fill="#3A362F" opacity="0.10"/>
<ellipse cx="808" cy="561" rx="156" ry="76" fill="#3A362F" opacity="0.11"/>
<ellipse cx="270" cy="271" rx="172" ry="48" fill="#3A362F" opacity="0.11"/>
<ellipse cx="230" cy="336" rx="163" ry="67" fill="#3A362F" opacity="0.12"/>
<ellipse cx="917" cy="299" rx="128" ry="30" fill="#3A362F" opacity="0.06"/>
<ellipse cx="762" cy="266" rx="92" ry="70" fill="#3A362F" opacity="0.12"/>
<ellipse cx="898" cy="376" rx="121" ry="59" fill="#3A362F" opacity="0.12"/>
<rect width="1200" height="800" fill="url(#lp53)"/>
<rect width="1200" height="800" fill="url(#fg53)"/>
<rect width="1200" height="800" fill="#0E0F11" opacity="0.30"/>
<rect width="1200" height="800" filter="url(#g53)" style="mix-blend-mode:soft-light"/>
</svg>
