<svg xmlns="http://www.w3.org/2000/svg" viewBox="0 0 340 520" role="img" aria-label="Construction AVQ inc.">
  <title>Construction AVQ inc.</title>
  <path d="M18 176 L102 140 L102 352 L18 352 Z" fill="#1B3663"/>
  <rect x="28" y="190" width="15" height="16" fill="#FFFFFF" opacity="0.92"/>
  <rect x="52" y="187" width="15" height="16" fill="#FFFFFF" opacity="0.92"/>
  <rect x="76" y="184" width="15" height="16" fill="#FFFFFF" opacity="0.92"/>
  <rect x="28" y="216" width="15" height="16" fill="#FFFFFF" opacity="0.92"/>
  <rect x="52" y="213" width="15" height="16" fill="#FFFFFF" opacity="0.92"/>
  <rect x="76" y="210" width="15" height="16" fill="#FFFFFF" opacity="0.92"/>
  <rect x="28" y="242" width="15" height="16" fill="#FFFFFF" opacity="0.92"/>
  <rect x="52" y="239" width="15" height="16" fill="#FFFFFF" opacity="0.92"/>
  <rect x="76" y="236" width="15" height="16" fill="#FFFFFF" opacity="0.92"/>
  <rect x="28" y="268" width="15" height="16" fill="#FFFFFF" opacity="0.92"/>
  <rect x="52" y="265" width="15" height="16" fill="#FFFFFF" opacity="0.92"/>
  <rect x="76" y="262" width="15" height="16" fill="#FFFFFF" opacity="0.92"/>
  <rect x="28" y="294" width="15" height="16" fill="#FFFFFF" opacity="0.92"/>
  <rect x="52" y="291" width="15" height="16" fill="#FFFFFF" opacity="0.92"/>
  <rect x="76" y="288" width="15" height="16" fill="#FFFFFF" opacity="0.92"/>
  <rect x="28" y="320" width="15" height="16" fill="#FFFFFF" opacity="0.92"/>
  <rect x="52" y="317" width="15" height="16" fill="#FFFFFF" opacity="0.92"/>
  <rect x="76" y="314" width="15" height="16" fill="#FFFFFF" opacity="0.92"/>
  <path d="M104 62 L168 34 L168 352 L104 352 Z" fill="#2A4A80"/>
  <rect x="116" y="86" width="16" height="17" fill="#FFFFFF" opacity="0.92"/>
  <rect x="142" y="82" width="16" height="17" fill="#FFFFFF" opacity="0.92"/>
  <rect x="116" y="114" width="16" height="17" fill="#FFFFFF" opacity="0.92"/>
  <rect x="142" y="110" width="16" height="17" fill="#FFFFFF" opacity="0.92"/>
  <rect x="116" y="142" width="16" height="17" fill="#FFFFFF" opacity="0.92"/>
  <rect x="142" y="138" width="16" height="17" fill="#FFFFFF" opacity="0.92"/>
  <rect x="116" y="170" width="16" height="17" fill="#FFFFFF" opacity="0.92"/>
  <rect x="142" y="166" width="16" height="17" fill="#FFFFFF" opacity="0.92"/>
  <rect x="116" y="198" width="16" height="17" fill="#FFFFFF" opacity="0.92"/>
  <rect x="142" y="194" width="16" height="17" fill="#FFFFFF" opacity="0.92"/>
  <rect x="116" y="226" width="16" height="17" fill="#FFFFFF" opacity="0.92"/>
  <rect x="142" y="222" width="16" height="17" fill="#FFFFFF" opacity="0.92"/>
  <rect x="116" y="254" width="16" height="17" fill="#FFFFFF" opacity="0.92"/>
  <rect x="142" y="250" width="16" height="17" fill="#FFFFFF" opacity="0.92"/>
  <rect x="116" y="282" width="16" height="17" fill="#FFFFFF" opacity="0.92"/>
  <rect x="142" y="278" width="16" height="17" fill="#FFFFFF" opacity="0.92"/>
  <rect x="116" y="310" width="16" height="17" fill="#FFFFFF" opacity="0.92"/>
  <rect x="142" y="306" width="16" height="17" fill="#FFFFFF" opacity="0.92"/>
  <path d="M172 96 L206 82 L206 352 L172 352 Z" fill="#152B50"/>
  <path d="M180 120 L198 113 L198 330 L180 330 Z" fill="#FFFFFF" opacity="0.28"/>
  <path d="M40 470 C 62 372, 140 300, 246 262 C 196 316, 158 386, 148 470 C 132 470, 56 470, 40 470 Z" fill="#E0A33E" opacity="1"/>
  <path d="M104 486 C 140 386, 224 316, 336 288 C 268 340, 214 404, 190 486 C 168 486, 126 486, 104 486 Z" fill="#1B3663" opacity="1"/>
  <path d="M188 476 C 258 402, 330 366, 336 360 C 300 384, 252 420, 268 476 C 244 476, 210 476, 188 476 Z" fill="#8C939B" opacity="1"/>
</svg>
